<?xml version="1.0" encoding="UTF-8" standalone="no"?>
<svg
   xmlns:dc="http://purl.org/dc/elements/1.1/"
   xmlns:cc="http://creativecommons.org/ns#"
   xmlns:rdf="http://www.w3.org/1999/02/22-rdf-syntax-ns#"
   xmlns:svg="http://www.w3.org/2000/svg"
   xmlns="http://www.w3.org/2000/svg"
   xmlns:sodipodi="http://sodipodi.sourceforge.net/DTD/sodipodi-0.dtd"
   xmlns:inkscape="http://www.inkscape.org/namespaces/inkscape"
   version="1.1"
   id="svg2"
   xml:space="preserve"
   width="1560.16"
   height="507.492"
   viewBox="0 0 1560.16 507.492"
   sodipodi:docname="bitcoin-lightning-accepted.ai"><metadata
     id="metadata8"><rdf:RDF><cc:Work
         rdf:about=""><dc:format>image/svg+xml</dc:format><dc:type
           rdf:resource="http://purl.org/dc/dcmitype/StillImage" /></cc:Work></rdf:RDF></metadata><defs
     id="defs6"><clipPath
       clipPathUnits="userSpaceOnUse"
       id="clipPath18"><path
         d="M 0,380.619 H 1170.122 V 0 H 0 Z"
         id="path16" /></clipPath></defs><sodipodi:namedview
     pagecolor="#ffffff"
     bordercolor="#666666"
     borderopacity="1"
     objecttolerance="10"
     gridtolerance="10"
     guidetolerance="10"
     inkscape:pageopacity="0"
     inkscape:pageshadow="2"
     inkscape:window-width="640"
     inkscape:window-height="480"
     id="namedview4" /><g
     id="g10"
     inkscape:groupmode="layer"
     inkscape:label="bitcoin-lightning-accepted"
     transform="matrix(1.3333333,0,0,-1.3333333,0,507.492)"><g
       id="g12"><g
         id="g14"
         clip-path="url(#clipPath18)"><g
           id="g20"
           transform="translate(348.7445,203.2485)"><path
             d="m 0,0 c -0.369,75.876 -51.875,144.779 -128.872,163.974 -91.055,22.705 -183.295,-32.724 -205.989,-123.807 -22.716,-91.065 32.708,-183.31 123.753,-206.016 65.201,-16.257 130.991,7.531 171.446,55.767 l -47.312,13.143 z"
             style="fill:#ff9000;fill-opacity:1;fill-rule:nonzero;stroke:none"
             id="path22" /></g><g
           id="g24"
           transform="translate(216.8768,226.8622)"><path
             d="m 0,0 c -5.259,-21.069 -37.718,-10.364 -48.248,-7.74 l 9.287,37.24 C -28.432,26.876 5.477,21.978 0,0 m -5.77,-60.094 c -5.763,-23.162 -44.762,-10.641 -57.406,-7.502 l 10.243,41.06 c 12.643,-3.155 53.188,-9.402 47.163,-33.558 m 42.617,59.76 c 3.384,22.62 -13.839,34.78 -37.389,42.892 L 7.097,73.2 -11.555,77.849 -18.992,48.014 c -4.904,1.222 -9.94,2.375 -14.944,3.517 l 7.491,30.031 -18.642,4.648 -7.644,-30.631 c -4.059,0.924 -8.043,1.838 -11.911,2.799 l 0.021,0.096 -25.722,6.423 -4.962,-19.922 c 0,0 13.839,-3.171 13.546,-3.368 7.555,-1.886 8.92,-6.885 8.692,-10.848 l -8.702,-34.908 c 0.52,-0.133 1.195,-0.324 1.939,-0.622 -0.622,0.155 -1.286,0.325 -1.971,0.489 l -12.198,-48.901 c -0.924,-2.295 -3.267,-5.737 -8.547,-4.43 0.186,-0.271 -13.558,3.384 -13.558,3.384 l -9.259,-21.351 24.273,-6.051 c 4.515,-1.132 8.94,-2.316 13.297,-3.432 l -7.719,-30.993 18.63,-4.648 7.645,30.664 c 5.089,-1.382 10.03,-2.656 14.864,-3.857 l -7.618,-30.52 18.652,-4.648 7.719,30.934 c 31.806,-6.019 55.722,-3.592 65.789,25.176 8.112,23.162 -0.403,36.522 -17.138,45.235 12.187,2.81 21.367,10.826 23.816,27.386"
             style="fill:#ffffff;fill-opacity:1;fill-rule:nonzero;stroke:none"
             id="path26" /></g><g
           id="g28"
           transform="translate(375.7708,218.3095)"><path
             d="m 0,0 -96,-107 54,-15 -38,-83 105,106 -63,17 z"
             style="fill:#ffba00;fill-opacity:1;fill-rule:nonzero;stroke:none"
             id="path30" /></g><text
           transform="matrix(1,0,0,-1,382.771,147.3096)"
           style="font-style:italic;font-variant:normal;font-weight:bold;font-stretch:normal;font-size:260px;font-family:Ubuntu;-inkscape-font-specification:Ubuntu-BoldItalic;writing-mode:lr-tb;fill:#4e4e4e;fill-opacity:1;fill-rule:nonzero;stroke:none"
           id="text34"><tspan
             x="0 142.22 208.52 305.5 416.51999 558.47998 624.78003"
             y="0"
             sodipodi:role="line"
             id="tspan32">bitcoin</tspan></text></g></g><text
       transform="matrix(1,0,0,-1,411.771,64.3096)"
       style="font-style:italic;font-variant:normal;font-weight:bold;font-stretch:normal;font-size:57px;font-family:Ubuntu;-inkscape-font-specification:Ubuntu-BoldItalic;writing-mode:lr-tb;fill:#4e4e4e;fill-opacity:1;fill-rule:nonzero;stroke:none"
       id="text38"><tspan
         x="0 32.147999 50.388 90.059998 131.214 165.528 208.278 226.51801 269.26801 308.94"
         y="0"
         sodipodi:role="line"
         id="tspan36">LIGHTNING </tspan></text><text
       transform="matrix(1,0,0,-1,734.847,64.3096)"
       style="font-style:italic;font-variant:normal;font-weight:300;font-stretch:normal;font-size:57px;font-family:'Ubuntu Light';-inkscape-font-specification:Ubuntu-LightItalic;writing-mode:lr-tb;fill:#4e4e4e;fill-opacity:1;fill-rule:nonzero;stroke:none"
       id="text42"><tspan
         x="0 34.200001 67.830002 103.056 133.38 165.07201 195.50999 225.834 264.99301 278.673 316.46399 346.78799 380.98801"
         y="0"
         sodipodi:role="line"
         id="tspan40">ACCEPTED HERE</tspan></text></g></svg>
