<?xml version="1.0" encoding="UTF-8" standalone="no"?><!-- Generator: Gravit.io --><svg xmlns="http://www.w3.org/2000/svg" xmlns:xlink="http://www.w3.org/1999/xlink" style="isolation:isolate" viewBox="0 0 1224.1 380.619" width="1224.1pt" height="380.619pt"><clipPath id="_clipPath_Ksx6llcVdq8ucNlVcTE4SZTuVlyPqXpt"><path d=" M 0 0 L 1170.122 0 L 1170.122 380.619 L 0 380.619 L 0 0 Z " fill="rgb(255,255,255)"/></clipPath><g clip-path="url(#_clipPath_Ksx6llcVdq8ucNlVcTE4SZTuVlyPqXpt)"><path d=" M 348.745 177.37 C 348.375 101.494 296.87 32.591 219.872 13.396 C 128.818 -9.309 36.577 46.12 13.884 137.204 C -8.833 228.268 46.591 320.513 137.637 343.22 C 202.837 359.477 268.628 335.689 309.082 287.453 L 261.771 274.31 L 348.745 177.37 Z " fill="rgb(255,144,0)"/><path d=" M 216.877 153.757 C 211.618 174.826 179.159 164.121 168.629 161.497 L 177.916 124.257 C 188.445 126.881 222.354 131.779 216.877 153.757 Z  M 211.107 213.851 C 205.344 237.013 166.345 224.492 153.701 221.353 L 163.944 180.293 C 176.587 183.448 217.132 189.695 211.107 213.851 Z  M 253.724 154.091 C 257.108 131.471 239.885 119.311 216.335 111.199 L 223.974 80.557 L 205.322 75.908 L 197.885 105.743 C 192.981 104.521 187.945 103.368 182.941 102.226 L 190.432 72.195 L 171.79 67.547 L 164.146 98.178 C 160.087 97.254 156.103 96.34 152.235 95.379 L 152.256 95.283 L 126.534 88.86 L 121.572 108.782 C 121.572 108.782 135.411 111.953 135.118 112.15 C 142.673 114.036 144.038 119.035 143.81 122.998 L 135.108 157.906 C 135.628 158.039 136.303 158.23 137.047 158.528 C 136.425 158.373 135.761 158.203 135.076 158.039 L 122.878 206.94 C 121.954 209.235 119.611 212.677 114.331 211.37 C 114.517 211.641 100.773 207.986 100.773 207.986 L 91.514 229.337 L 115.787 235.388 C 120.302 236.52 124.727 237.704 129.084 238.82 L 121.365 269.813 L 139.995 274.461 L 147.64 243.797 C 152.729 245.179 157.67 246.453 162.504 247.654 L 154.886 278.174 L 173.538 282.822 L 181.257 251.888 C 213.063 257.907 236.979 255.48 247.046 226.712 C 255.158 203.55 246.643 190.19 229.908 181.477 C 242.095 178.667 251.275 170.651 253.724 154.091 Z " fill="rgb(255,255,255)"/><path d=" M 375.771 162.309 L 279.771 269.31 L 333.771 284.31 L 295.771 367.31 L 400.771 261.31 L 337.771 244.309 L 375.771 162.309 Z " fill="rgb(255,186,0)"/></g><path d=" M 426.705 308.785 L 444.204 308.785 L 442.38 316.309 L 416.046 316.309 L 425.508 276.808 L 434.4 276.808 L 426.705 308.785 L 426.705 308.785 Z  M 448.223 316.309 L 457.685 276.808 L 466.577 276.808 L 457.058 316.309 L 448.223 316.309 L 448.223 316.309 Z  M 486.213 309.469 L 486.213 309.469 L 486.213 309.469 Q 487.353 309.469 488.265 309.384 L 488.265 309.384 L 488.265 309.384 Q 489.177 309.298 489.918 309.184 L 489.918 309.184 L 493.224 295.447 L 502.116 295.447 L 497.328 315.226 L 497.328 315.226 Q 495.732 315.853 492.711 316.452 L 492.711 316.452 L 492.711 316.452 Q 489.69 317.05 485.016 317.05 L 485.016 317.05 L 485.016 317.05 Q 481.026 317.05 477.977 315.882 L 477.977 315.882 L 477.977 315.882 Q 474.927 314.713 472.875 312.547 L 472.875 312.547 L 472.875 312.547 Q 470.823 310.381 469.797 307.303 L 469.797 307.303 L 469.797 307.303 Q 468.771 304.225 468.771 300.349 L 468.771 300.349 L 468.771 300.349 Q 468.771 295.903 470.339 291.514 L 470.339 291.514 L 470.339 291.514 Q 471.906 287.125 474.984 283.677 L 474.984 283.677 L 474.984 283.677 Q 478.062 280.228 482.622 278.062 L 482.622 278.062 L 482.622 278.062 Q 487.182 275.896 493.11 275.896 L 493.11 275.896 L 493.11 275.896 Q 495.846 275.896 498.896 276.694 L 498.896 276.694 L 498.896 276.694 Q 501.945 277.492 504.396 279.088 L 504.396 279.088 L 501.204 285.985 L 501.204 285.985 Q 499.209 284.731 496.958 284.104 L 496.958 284.104 L 496.958 284.104 Q 494.706 283.477 492.54 283.477 L 492.54 283.477 L 492.54 283.477 Q 489.063 283.477 486.356 284.788 L 486.356 284.788 L 486.356 284.788 Q 483.648 286.099 481.767 288.351 L 481.767 288.351 L 481.767 288.351 Q 479.886 290.602 478.917 293.566 L 478.917 293.566 L 478.917 293.566 Q 477.948 296.53 477.948 299.836 L 477.948 299.836 L 477.948 299.836 Q 477.948 304.852 480.029 307.161 L 480.029 307.161 L 480.029 307.161 Q 482.109 309.469 486.213 309.469 Z  M 534.008 291.97 L 537.656 276.808 L 546.548 276.808 L 537.029 316.309 L 528.137 316.309 L 532.184 299.494 L 518.162 299.494 L 514.115 316.309 L 505.28 316.309 L 514.742 276.808 L 523.634 276.808 L 519.986 291.97 L 534.008 291.97 L 534.008 291.97 Z  M 551.82 276.808 L 583.854 276.808 L 582.03 284.275 L 570.459 284.275 L 562.764 316.309 L 553.872 316.309 L 561.567 284.275 L 549.996 284.275 L 551.82 276.808 L 551.82 276.808 Z  M 613.238 316.309 L 606.569 316.309 L 606.569 316.309 Q 604.175 309.583 601.239 302.857 L 601.239 302.857 L 601.239 302.857 Q 598.304 296.131 594.884 290.146 L 594.884 290.146 L 588.614 316.309 L 579.893 316.309 L 589.355 276.808 L 596.138 276.808 L 596.138 276.808 Q 597.449 278.803 598.959 281.511 L 598.959 281.511 L 598.959 281.511 Q 600.47 284.218 602.066 287.353 L 602.066 287.353 L 602.066 287.353 Q 603.662 290.488 605.257 293.88 L 605.257 293.88 L 605.257 293.88 Q 606.853 297.271 608.279 300.577 L 608.279 300.577 L 613.922 276.808 L 622.757 276.808 L 613.238 316.309 L 613.238 316.309 Z  M 622.215 316.309 L 631.677 276.808 L 640.569 276.808 L 631.05 316.309 L 622.215 316.309 L 622.215 316.309 Z  M 673.373 316.309 L 666.704 316.309 L 666.704 316.309 Q 664.31 309.583 661.374 302.857 L 661.374 302.857 L 661.374 302.857 Q 658.439 296.131 655.019 290.146 L 655.019 290.146 L 648.749 316.309 L 640.028 316.309 L 649.49 276.808 L 656.273 276.808 L 656.273 276.808 Q 657.584 278.803 659.094 281.511 L 659.094 281.511 L 659.094 281.511 Q 660.605 284.218 662.201 287.353 L 662.201 287.353 L 662.201 287.353 Q 663.797 290.488 665.393 293.88 L 665.393 293.88 L 665.393 293.88 Q 666.989 297.271 668.414 300.577 L 668.414 300.577 L 674.056 276.808 L 682.892 276.808 L 673.373 316.309 L 673.373 316.309 Z  M 702.528 309.469 L 702.528 309.469 L 702.528 309.469 Q 703.668 309.469 704.58 309.384 L 704.58 309.384 L 704.58 309.384 Q 705.492 309.298 706.233 309.184 L 706.233 309.184 L 709.539 295.447 L 718.431 295.447 L 713.643 315.226 L 713.643 315.226 Q 712.047 315.853 709.026 316.452 L 709.026 316.452 L 709.026 316.452 Q 706.005 317.05 701.331 317.05 L 701.331 317.05 L 701.331 317.05 Q 697.341 317.05 694.292 315.882 L 694.292 315.882 L 694.292 315.882 Q 691.242 314.713 689.19 312.547 L 689.19 312.547 L 689.19 312.547 Q 687.138 310.381 686.112 307.303 L 686.112 307.303 L 686.112 307.303 Q 685.086 304.225 685.086 300.349 L 685.086 300.349 L 685.086 300.349 Q 685.086 295.903 686.654 291.514 L 686.654 291.514 L 686.654 291.514 Q 688.221 287.125 691.299 283.677 L 691.299 283.677 L 691.299 283.677 Q 694.377 280.228 698.937 278.062 L 698.937 278.062 L 698.937 278.062 Q 703.497 275.896 709.425 275.896 L 709.425 275.896 L 709.425 275.896 Q 712.161 275.896 715.21 276.694 L 715.21 276.694 L 715.21 276.694 Q 718.26 277.492 720.711 279.088 L 720.711 279.088 L 717.519 285.985 L 717.519 285.985 Q 715.524 284.731 713.273 284.104 L 713.273 284.104 L 713.273 284.104 Q 711.021 283.477 708.855 283.477 L 708.855 283.477 L 708.855 283.477 Q 705.378 283.477 702.671 284.788 L 702.671 284.788 L 702.671 284.788 Q 699.963 286.099 698.082 288.351 L 698.082 288.351 L 698.082 288.351 Q 696.201 290.602 695.232 293.566 L 695.232 293.566 L 695.232 293.566 Q 694.263 296.53 694.263 299.836 L 694.263 299.836 L 694.263 299.836 Q 694.263 304.852 696.344 307.161 L 696.344 307.161 L 696.344 307.161 Q 698.424 309.469 702.528 309.469 Z " fill="rgb(78,78,78)"/><path d=" M 1014.921 316.309 L 1024.383 276.808 L 1028.25 276.808 L 1024.082 293.965 L 1044.51 293.965 L 1048.595 276.808 L 1052.462 276.808 L 1043.057 316.309 L 1039.19 316.309 L 1043.709 297.328 L 1023.335 297.328 L 1018.788 316.309 L 1014.921 316.309 L 1014.921 316.309 Z  M 1052.284 316.309 L 1061.746 276.808 L 1083.79 276.808 L 1083.05 280.171 L 1064.758 280.171 L 1061.437 293.908 L 1077.691 293.908 L 1076.95 297.214 L 1060.755 297.214 L 1056.835 312.946 L 1076.437 312.946 L 1075.754 316.309 L 1052.284 316.309 L 1052.284 316.309 Z  M 1100.7 276.466 L 1100.7 276.466 L 1100.7 276.466 Q 1107.421 276.466 1110.782 279.174 L 1110.782 279.174 L 1110.782 279.174 Q 1114.143 281.881 1114.143 286.84 L 1114.143 286.84 L 1114.143 286.84 Q 1114.143 291.286 1111.293 294.621 L 1111.293 294.621 L 1111.293 294.621 Q 1108.443 297.955 1102.629 299.437 L 1102.629 299.437 L 1102.629 299.437 Q 1103.313 300.691 1104.282 302.715 L 1104.282 302.715 L 1104.282 302.715 Q 1105.251 304.738 1106.248 307.075 L 1106.248 307.075 L 1106.248 307.075 Q 1107.246 309.412 1108.186 311.835 L 1108.186 311.835 L 1108.186 311.835 Q 1109.127 314.257 1109.754 316.309 L 1109.754 316.309 L 1105.65 316.309 L 1105.65 316.309 Q 1104.054 311.464 1102.144 307.275 L 1102.144 307.275 L 1102.144 307.275 Q 1100.235 303.085 1098.582 300.178 L 1098.582 300.178 L 1098.582 300.178 Q 1096.705 300.349 1094.658 300.349 L 1094.658 300.349 L 1089.88 300.349 L 1086.048 316.309 L 1082.181 316.309 L 1091.472 277.549 L 1091.472 277.549 Q 1093.466 277.15 1095.829 276.808 L 1095.829 276.808 L 1095.829 276.808 Q 1098.193 276.466 1100.7 276.466 Z  M 1090.616 297.043 L 1095.343 297.043 L 1095.343 297.043 Q 1102.463 297.043 1106.28 294.336 L 1106.28 294.336 L 1106.28 294.336 Q 1110.096 291.628 1110.096 286.726 L 1110.096 286.726 L 1110.096 286.726 Q 1110.096 283.135 1107.703 281.482 L 1107.703 281.482 L 1107.703 281.482 Q 1105.31 279.829 1100.125 279.829 L 1100.125 279.829 L 1100.125 279.829 Q 1098.643 279.829 1097.248 279.972 L 1097.248 279.972 L 1097.248 279.972 Q 1095.852 280.114 1094.712 280.228 L 1094.712 280.228 L 1090.616 297.043 L 1090.616 297.043 Z  M 1115.953 316.309 L 1125.415 276.808 L 1147.459 276.808 L 1146.719 280.171 L 1128.427 280.171 L 1125.106 293.908 L 1141.36 293.908 L 1140.619 297.214 L 1124.424 297.214 L 1120.504 312.946 L 1140.106 312.946 L 1139.423 316.309 L 1115.953 316.309 L 1115.953 316.309 Z  M 766.186 316.309 L 762.196 316.309 L 762.196 316.309 Q 761.896 313.573 761.574 310.894 L 761.574 310.894 L 761.574 310.894 Q 761.252 308.215 760.894 305.479 L 760.894 305.479 L 742.375 305.479 L 742.375 305.479 Q 740.901 308.101 739.428 310.78 L 739.428 310.78 L 739.428 310.78 Q 737.954 313.459 736.432 316.309 L 736.432 316.309 L 732.214 316.309 L 732.214 316.309 Q 738.08 305.707 744.288 295.675 L 744.288 295.675 L 744.288 295.675 Q 750.495 285.643 756.475 276.808 L 756.475 276.808 L 760.671 276.808 L 760.671 276.808 Q 762.092 285.13 763.485 294.792 L 763.485 294.792 L 763.485 294.792 Q 764.879 304.453 766.186 316.309 L 766.186 316.309 L 766.186 316.309 Z  M 757.608 281.254 L 757.608 281.254 L 757.608 281.254 Q 754.139 286.555 750.823 291.685 L 750.823 291.685 L 750.823 291.685 Q 747.507 296.815 744.305 302.173 L 744.305 302.173 L 760.518 302.173 L 760.518 302.173 Q 759.904 297.043 759.143 291.885 L 759.143 291.885 L 759.143 291.885 Q 758.382 286.726 757.608 281.254 Z  M 799.503 311.122 L 800.016 314.542 L 800.016 314.542 Q 797.679 315.796 794.715 316.48 L 794.715 316.48 L 794.715 316.48 Q 791.751 317.164 788.844 317.164 L 788.844 317.164 L 788.844 317.164 Q 785.652 317.164 783.001 316.281 L 783.001 316.281 L 783.001 316.281 Q 780.351 315.397 778.441 313.545 L 778.441 313.545 L 778.441 313.545 Q 776.532 311.692 775.477 308.814 L 775.477 308.814 L 775.477 308.814 Q 774.423 305.935 774.423 301.888 L 774.423 301.888 L 774.423 301.888 Q 774.423 295.789 776.304 290.973 L 776.304 290.973 L 776.304 290.973 Q 778.185 286.156 781.377 282.822 L 781.377 282.822 L 781.377 282.822 Q 784.569 279.487 788.73 277.72 L 788.73 277.72 L 788.73 277.72 Q 792.891 275.953 797.451 275.953 L 797.451 275.953 L 797.451 275.953 Q 800.13 275.953 802.438 276.523 L 802.438 276.523 L 802.438 276.523 Q 804.747 277.093 807.141 278.404 L 807.141 278.404 L 805.374 281.938 L 805.374 281.938 Q 801.27 279.43 796.653 279.43 L 796.653 279.43 L 796.653 279.43 Q 793.062 279.43 789.784 280.998 L 789.784 280.998 L 789.784 280.998 Q 786.507 282.565 783.999 285.472 L 783.999 285.472 L 783.999 285.472 Q 781.491 288.379 780.009 292.512 L 780.009 292.512 L 780.009 292.512 Q 778.527 296.644 778.527 301.774 L 778.527 301.774 L 778.527 301.774 Q 778.527 307.588 781.035 310.638 L 781.035 310.638 L 781.035 310.638 Q 783.543 313.687 788.73 313.687 L 788.73 313.687 L 788.73 313.687 Q 791.01 313.687 792.777 313.402 L 792.777 313.402 L 792.777 313.402 Q 794.544 313.117 795.826 312.718 L 795.826 312.718 L 795.826 312.718 Q 797.109 312.319 797.992 311.892 L 797.992 311.892 L 797.992 311.892 Q 798.876 311.464 799.503 311.122 L 799.503 311.122 L 799.503 311.122 Z  M 834.301 311.122 L 834.814 314.542 L 834.814 314.542 Q 832.477 315.796 829.513 316.48 L 829.513 316.48 L 829.513 316.48 Q 826.549 317.164 823.642 317.164 L 823.642 317.164 L 823.642 317.164 Q 820.45 317.164 817.8 316.281 L 817.8 316.281 L 817.8 316.281 Q 815.149 315.397 813.24 313.545 L 813.24 313.545 L 813.24 313.545 Q 811.33 311.692 810.276 308.814 L 810.276 308.814 L 810.276 308.814 Q 809.221 305.935 809.221 301.888 L 809.221 301.888 L 809.221 301.888 Q 809.221 295.789 811.102 290.973 L 811.102 290.973 L 811.102 290.973 Q 812.983 286.156 816.175 282.822 L 816.175 282.822 L 816.175 282.822 Q 819.367 279.487 823.528 277.72 L 823.528 277.72 L 823.528 277.72 Q 827.689 275.953 832.249 275.953 L 832.249 275.953 L 832.249 275.953 Q 834.928 275.953 837.237 276.523 L 837.237 276.523 L 837.237 276.523 Q 839.545 277.093 841.939 278.404 L 841.939 278.404 L 840.172 281.938 L 840.172 281.938 Q 836.068 279.43 831.451 279.43 L 831.451 279.43 L 831.451 279.43 Q 827.86 279.43 824.583 280.998 L 824.583 280.998 L 824.583 280.998 Q 821.305 282.565 818.797 285.472 L 818.797 285.472 L 818.797 285.472 Q 816.289 288.379 814.807 292.512 L 814.807 292.512 L 814.807 292.512 Q 813.325 296.644 813.325 301.774 L 813.325 301.774 L 813.325 301.774 Q 813.325 307.588 815.833 310.638 L 815.833 310.638 L 815.833 310.638 Q 818.341 313.687 823.528 313.687 L 823.528 313.687 L 823.528 313.687 Q 825.808 313.687 827.575 313.402 L 827.575 313.402 L 827.575 313.402 Q 829.342 313.117 830.625 312.718 L 830.625 312.718 L 830.625 312.718 Q 831.907 312.319 832.791 311.892 L 832.791 311.892 L 832.791 311.892 Q 833.674 311.464 834.301 311.122 L 834.301 311.122 L 834.301 311.122 Z  M 840.9 316.309 L 850.362 276.808 L 872.406 276.808 L 871.665 280.171 L 853.374 280.171 L 850.053 293.908 L 866.307 293.908 L 865.566 297.214 L 849.371 297.214 L 845.451 312.946 L 865.053 312.946 L 864.369 316.309 L 840.9 316.309 L 840.9 316.309 Z  M 870.796 316.309 L 880.087 277.549 L 880.087 277.549 Q 882.252 277.093 884.73 276.78 L 884.73 276.78 L 884.73 276.78 Q 887.208 276.466 889.771 276.466 L 889.771 276.466 L 889.771 276.466 Q 896.55 276.466 899.739 279.031 L 899.739 279.031 L 899.739 279.031 Q 902.929 281.596 902.929 286.441 L 902.929 286.441 L 902.929 286.441 Q 902.929 289.633 901.645 292.312 L 901.645 292.312 L 901.645 292.312 Q 900.361 294.991 897.936 296.929 L 897.936 296.929 L 897.936 296.929 Q 895.51 298.867 891.915 299.95 L 891.915 299.95 L 891.915 299.95 Q 888.319 301.033 883.696 301.033 L 883.696 301.033 L 878.332 301.033 L 874.664 316.309 L 870.796 316.309 L 870.796 316.309 Z  M 879.139 297.67 L 884.26 297.67 L 884.26 297.67 Q 891.201 297.67 895.013 294.82 L 895.013 294.82 L 895.013 294.82 Q 898.825 291.97 898.825 286.954 L 898.825 286.954 L 898.825 286.954 Q 898.825 283.249 896.432 281.539 L 896.432 281.539 L 896.432 281.539 Q 894.039 279.829 888.911 279.829 L 888.911 279.829 L 888.911 279.829 Q 887.43 279.829 885.977 279.972 L 885.977 279.972 L 885.977 279.972 Q 884.524 280.114 883.328 280.228 L 883.328 280.228 L 879.139 297.67 L 879.139 297.67 Z  M 911.409 316.309 L 920.073 280.171 L 907.974 280.171 L 908.715 276.808 L 936.816 276.808 L 936.018 280.171 L 923.94 280.171 L 915.276 316.309 L 911.409 316.309 L 911.409 316.309 Z  M 933.04 316.309 L 942.502 276.808 L 964.546 276.808 L 963.806 280.171 L 945.514 280.171 L 942.193 293.908 L 958.447 293.908 L 957.706 297.214 L 941.511 297.214 L 937.591 312.946 L 957.193 312.946 L 956.51 316.309 L 933.04 316.309 L 933.04 316.309 Z  M 975.252 280.228 L 967.443 312.889 L 967.443 312.889 Q 968.867 313.117 970.177 313.203 L 970.177 313.203 L 970.177 313.203 Q 971.487 313.288 972.797 313.288 L 972.797 313.288 L 972.797 313.288 Q 978.152 313.288 982.224 311.721 L 982.224 311.721 L 982.224 311.721 Q 986.297 310.153 989.031 307.417 L 989.031 307.417 L 989.031 307.417 Q 991.766 304.681 993.161 300.948 L 993.161 300.948 L 993.161 300.948 Q 994.557 297.214 994.557 292.825 L 994.557 292.825 L 994.557 292.825 Q 994.557 286.27 991.282 283.021 L 991.282 283.021 L 991.282 283.021 Q 988.008 279.772 981.06 279.772 L 981.06 279.772 L 981.06 279.772 Q 979.637 279.772 978.184 279.886 L 978.184 279.886 L 978.184 279.886 Q 976.732 280 975.252 280.228 L 975.252 280.228 L 975.252 280.228 Z  M 962.938 315.568 L 972.001 277.549 L 972.001 277.549 Q 974.792 276.922 977.071 276.694 L 977.071 276.694 L 977.071 276.694 Q 979.349 276.466 981.571 276.466 L 981.571 276.466 L 981.571 276.466 Q 990.287 276.466 994.502 280.684 L 994.502 280.684 L 994.502 280.684 Q 998.718 284.902 998.718 292.654 L 998.718 292.654 L 998.718 292.654 Q 998.718 297.898 997.009 302.316 L 997.009 302.316 L 997.009 302.316 Q 995.299 306.733 991.966 309.925 L 991.966 309.925 L 991.966 309.925 Q 988.633 313.117 983.676 314.884 L 983.676 314.884 L 983.676 314.884 Q 978.72 316.651 972.224 316.651 L 972.224 316.651 L 972.224 316.651 Q 971.085 316.651 969.803 316.566 L 969.803 316.566 L 969.803 316.566 Q 968.521 316.48 967.296 316.366 L 967.296 316.366 L 967.296 316.366 Q 966.071 316.252 964.932 316.053 L 964.932 316.053 L 964.932 316.053 Q 963.792 315.853 962.938 315.568 L 962.938 315.568 L 962.938 315.568 Z " fill="rgb(78,78,78)"/><path d=" M 492.28 91.851 L 492.28 91.851 L 492.28 91.851 Q 504.925 91.851 514.145 96.33 L 514.145 96.33 L 514.145 96.33 Q 523.365 100.808 529.424 108.447 L 529.424 108.447 L 529.424 108.447 Q 535.482 116.087 538.38 126.36 L 538.38 126.36 L 538.38 126.36 Q 541.278 136.634 541.278 148.488 L 541.278 148.488 L 541.278 148.488 Q 541.278 166.665 534.56 182.866 L 534.56 182.866 L 534.56 182.866 Q 527.843 199.066 516.252 211.052 L 516.252 211.052 L 516.252 211.052 Q 504.661 223.038 488.856 230.019 L 488.856 230.019 L 488.856 230.019 Q 473.05 237 454.61 237 L 454.61 237 L 454.61 237 Q 452.239 237 446.312 236.868 L 446.312 236.868 L 446.312 236.868 Q 440.385 236.737 432.745 235.683 L 432.745 235.683 L 432.745 235.683 Q 425.106 234.629 416.545 232.522 L 416.545 232.522 L 416.545 232.522 Q 407.983 230.414 400.344 226.726 L 400.344 226.726 L 445.917 35.214 L 486.748 28.892 L 470.416 96.856 L 470.416 96.856 Q 475.684 94.486 480.953 93.168 L 480.953 93.168 L 480.953 93.168 Q 486.221 91.851 492.28 91.851 Z  M 458.035 204.598 L 458.035 204.598 L 458.035 204.598 Q 467.255 204.598 475.421 200.12 L 475.421 200.12 L 475.421 200.12 Q 483.587 195.642 489.514 188.134 L 489.514 188.134 L 489.514 188.134 Q 495.441 180.626 498.866 171.143 L 498.866 171.143 L 498.866 171.143 Q 502.29 161.66 502.29 151.386 L 502.29 151.386 L 502.29 151.386 Q 502.29 138.741 498.076 131.629 L 498.076 131.629 L 498.076 131.629 Q 493.861 124.516 482.533 124.516 L 482.533 124.516 L 482.533 124.516 Q 478.845 124.516 472.918 125.833 L 472.918 125.833 L 472.918 125.833 Q 466.991 127.151 462.249 131.365 L 462.249 131.365 L 444.863 203.545 L 444.863 203.545 Q 446.444 203.808 447.629 204.072 L 447.629 204.072 L 447.629 204.072 Q 448.815 204.335 450.132 204.467 L 450.132 204.467 L 450.132 204.467 Q 451.449 204.598 453.293 204.598 L 453.293 204.598 L 453.293 204.598 Q 455.137 204.598 458.035 204.598 Z  M 623.994 94.749 L 590.802 233.312 L 551.815 233.312 L 584.743 94.749 L 623.994 94.749 Z  M 609.769 77.89 L 609.769 77.89 L 609.769 77.89 Q 601.603 77.89 595.017 73.016 L 595.017 73.016 L 595.017 73.016 Q 588.431 68.143 588.431 58.132 L 588.431 58.132 L 588.431 58.132 Q 588.431 52.6 590.67 47.727 L 590.67 47.727 L 590.67 47.727 Q 592.91 42.854 596.598 39.297 L 596.598 39.297 L 596.598 39.297 Q 600.286 35.741 605.159 33.634 L 605.159 33.634 L 605.159 33.634 Q 610.032 31.526 615.564 31.526 L 615.564 31.526 L 615.564 31.526 Q 623.731 31.526 630.316 36.4 L 630.316 36.4 L 630.316 36.4 Q 636.902 41.273 636.902 51.283 L 636.902 51.283 L 636.902 51.283 Q 636.902 56.815 634.663 61.689 L 634.663 61.689 L 634.663 61.689 Q 632.424 66.562 628.736 70.118 L 628.736 70.118 L 628.736 70.118 Q 625.048 73.675 620.174 75.782 L 620.174 75.782 L 620.174 75.782 Q 615.301 77.89 609.769 77.89 Z  M 638.219 169.299 L 664.035 60.24 L 704.866 53.918 L 694.856 94.749 L 738.585 94.749 L 730.682 126.887 L 687.217 126.887 L 675.626 175.358 L 675.626 175.358 Q 674.045 181.417 673.65 186.685 L 673.65 186.685 L 673.65 186.685 Q 673.255 191.954 674.967 195.774 L 674.967 195.774 L 674.967 195.774 Q 676.68 199.593 680.895 201.701 L 680.895 201.701 L 680.895 201.701 Q 685.109 203.808 692.485 203.808 L 692.485 203.808 L 692.485 203.808 Q 698.808 203.808 704.735 202.623 L 704.735 202.623 L 704.735 202.623 Q 710.662 201.437 716.721 199.33 L 716.721 199.33 L 719.618 229.361 L 719.618 229.361 Q 711.716 232.258 702.496 234.366 L 702.496 234.366 L 702.496 234.366 Q 693.276 236.473 680.631 236.473 L 680.631 236.473 L 680.631 236.473 Q 662.455 236.473 652.444 231.073 L 652.444 231.073 L 652.444 231.073 Q 642.434 225.673 638.219 216.321 L 638.219 216.321 L 638.219 216.321 Q 634.004 206.969 634.531 194.852 L 634.531 194.852 L 634.531 194.852 Q 635.058 182.734 638.219 169.299 L 638.219 169.299 Z  M 739.902 177.992 L 739.902 177.992 L 739.902 177.992 Q 739.902 160.079 745.698 144.273 L 745.698 144.273 L 745.698 144.273 Q 751.493 128.468 762.294 116.613 L 762.294 116.613 L 762.294 116.613 Q 773.094 104.759 788.505 97.91 L 788.505 97.91 L 788.505 97.91 Q 803.915 91.061 822.882 91.061 L 822.882 91.061 L 822.882 91.061 Q 834.736 91.061 844.088 93.3 L 844.088 93.3 L 844.088 93.3 Q 853.44 95.539 861.079 99.227 L 861.079 99.227 L 847.644 129.785 L 847.644 129.785 Q 842.376 127.677 836.712 125.965 L 836.712 125.965 L 836.712 125.965 Q 831.048 124.253 822.882 124.253 L 822.882 124.253 L 822.882 124.253 Q 803.125 124.253 791.798 137.556 L 791.798 137.556 L 791.798 137.556 Q 780.47 150.859 780.47 173.777 L 780.47 173.777 L 780.47 173.777 Q 780.47 187.212 786.266 195.51 L 786.266 195.51 L 786.266 195.51 Q 792.061 203.808 807.603 203.808 L 807.603 203.808 L 807.603 203.808 Q 815.243 203.808 822.355 202.228 L 822.355 202.228 L 822.355 202.228 Q 829.468 200.647 835 198.276 L 835 198.276 L 837.898 229.624 L 837.898 229.624 Q 830.522 232.522 821.697 234.761 L 821.697 234.761 L 821.697 234.761 Q 812.872 237 800.227 237 L 800.227 237 L 800.227 237 Q 783.895 237 772.567 232.258 L 772.567 232.258 L 772.567 232.258 Q 761.24 227.517 753.864 219.482 L 753.864 219.482 L 753.864 219.482 Q 746.488 211.448 743.195 200.647 L 743.195 200.647 L 743.195 200.647 Q 739.902 189.846 739.902 177.992 Z  M 914.555 237 L 914.555 237 L 914.555 237 Q 900.593 237 890.32 232.785 L 890.32 232.785 L 890.32 232.785 Q 880.046 228.57 873.329 220.931 L 873.329 220.931 L 873.329 220.931 Q 866.611 213.291 863.187 202.886 L 863.187 202.886 L 863.187 202.886 Q 859.762 192.481 859.762 179.836 L 859.762 179.836 L 859.762 179.836 Q 859.762 164.03 864.899 148.225 L 864.899 148.225 L 864.899 148.225 Q 870.036 132.419 880.046 119.775 L 880.046 119.775 L 880.046 119.775 Q 890.056 107.13 904.545 99.095 L 904.545 99.095 L 904.545 99.095 Q 919.033 91.061 937.737 91.061 L 937.737 91.061 L 937.737 91.061 Q 951.435 91.061 961.84 95.276 L 961.84 95.276 L 961.84 95.276 Q 972.246 99.491 978.963 107.13 L 978.963 107.13 L 978.963 107.13 Q 985.681 114.769 989.105 125.175 L 989.105 125.175 L 989.105 125.175 Q 992.53 135.58 992.53 148.225 L 992.53 148.225 L 992.53 148.225 Q 992.53 164.03 987.525 179.836 L 987.525 179.836 L 987.525 179.836 Q 982.519 195.642 972.773 208.286 L 972.773 208.286 L 972.773 208.286 Q 963.026 220.931 948.406 228.965 L 948.406 228.965 L 948.406 228.965 Q 933.785 237 914.555 237 Z  M 934.049 124.253 L 934.049 124.253 L 934.049 124.253 Q 925.356 124.253 918.77 129.258 L 918.77 129.258 L 918.77 129.258 Q 912.184 134.263 907.706 141.903 L 907.706 141.903 L 907.706 141.903 Q 903.228 149.542 900.989 158.63 L 900.989 158.63 L 900.989 158.63 Q 898.749 167.718 898.749 175.885 L 898.749 175.885 L 898.749 175.885 Q 898.749 189.32 902.964 196.564 L 902.964 196.564 L 902.964 196.564 Q 907.179 203.808 918.243 203.808 L 918.243 203.808 L 918.243 203.808 Q 926.936 203.808 933.522 198.803 L 933.522 198.803 L 933.522 198.803 Q 940.108 193.798 944.586 186.158 L 944.586 186.158 L 944.586 186.158 Q 949.064 178.519 951.303 169.431 L 951.303 169.431 L 951.303 169.431 Q 953.542 160.342 953.542 152.176 L 953.542 152.176 L 953.542 152.176 Q 953.542 138.741 949.328 131.497 L 949.328 131.497 L 949.328 131.497 Q 945.113 124.253 934.049 124.253 Z  M 1075.246 94.749 L 1042.054 233.312 L 1003.067 233.312 L 1035.995 94.749 L 1075.246 94.749 Z  M 1061.021 77.89 L 1061.021 77.89 L 1061.021 77.89 Q 1052.855 77.89 1046.269 73.016 L 1046.269 73.016 L 1046.269 73.016 Q 1039.683 68.143 1039.683 58.132 L 1039.683 58.132 L 1039.683 58.132 Q 1039.683 52.6 1041.922 47.727 L 1041.922 47.727 L 1041.922 47.727 Q 1044.162 42.854 1047.85 39.297 L 1047.85 39.297 L 1047.85 39.297 Q 1051.538 35.741 1056.411 33.634 L 1056.411 33.634 L 1056.411 33.634 Q 1061.284 31.526 1066.816 31.526 L 1066.816 31.526 L 1066.816 31.526 Q 1074.983 31.526 1081.568 36.4 L 1081.568 36.4 L 1081.568 36.4 Q 1088.154 41.273 1088.154 51.283 L 1088.154 51.283 L 1088.154 51.283 Q 1088.154 56.815 1085.915 61.689 L 1085.915 61.689 L 1085.915 61.689 Q 1083.676 66.562 1079.988 70.118 L 1079.988 70.118 L 1079.988 70.118 Q 1076.3 73.675 1071.426 75.782 L 1071.426 75.782 L 1071.426 75.782 Q 1066.553 77.89 1061.021 77.89 Z  M 1077.617 233.312 L 1109.492 101.071 L 1109.492 101.071 Q 1113.97 99.754 1119.37 98.042 L 1119.37 98.042 L 1119.37 98.042 Q 1124.771 96.33 1131.488 94.881 L 1131.488 94.881 L 1131.488 94.881 Q 1138.205 93.432 1146.503 92.51 L 1146.503 92.51 L 1146.503 92.51 Q 1154.801 91.588 1165.338 91.588 L 1165.338 91.588 L 1165.338 91.588 Q 1196.423 91.588 1208.014 109.501 L 1208.014 109.501 L 1208.014 109.501 Q 1219.605 127.414 1211.965 158.498 L 1211.965 158.498 L 1194.052 233.312 L 1154.801 233.312 L 1172.188 160.079 L 1172.188 160.079 Q 1173.768 153.23 1174.69 146.776 L 1174.69 146.776 L 1174.69 146.776 Q 1175.612 140.322 1174.558 135.449 L 1174.558 135.449 L 1174.558 135.449 Q 1173.505 130.575 1169.685 127.546 L 1169.685 127.546 L 1169.685 127.546 Q 1165.865 124.516 1157.962 124.516 L 1157.962 124.516 L 1157.962 124.516 Q 1150.323 124.516 1142.42 126.097 L 1142.42 126.097 L 1116.868 233.312 L 1077.617 233.312 Z " fill="rgb(78,78,78)"/></svg>