<?xml version="1.0" encoding="UTF-8" standalone="no"?><!-- Generator: Gravit.io --><svg xmlns="http://www.w3.org/2000/svg" xmlns:xlink="http://www.w3.org/1999/xlink" style="isolation:isolate" viewBox="0 0 802.486 256.8" width="802.486pt" height="256.8pt"><defs><clipPath id="_clipPath_Lr44Y2lrH3y3s8leSCidNKW0xGZZHdIU"><rect width="802.486" height="256.8"/></clipPath></defs><g clip-path="url(#_clipPath_Lr44Y2lrH3y3s8leSCidNKW0xGZZHdIU)"><g><path d=" M 233.779 116.249 C 233.466 59.577 192.544 11.295 136.689 1.699 C 80.835 -7.898 26.144 23.958 6.934 77.275 C -12.275 130.593 9.532 190.01 58.672 218.241 C 107.813 246.473 170.126 235.385 206.511 191.934 L 173.983 182.9 L 233.779 116.249 Z " fill="rgb(255,144,0)"/><path d=" M 168.448 100.243 C 170.779 84.691 158.933 76.33 142.741 70.754 L 148.014 49.688 L 135.192 46.491 L 130.076 67 C 126.707 66.161 123.249 65.371 119.804 64.587 L 124.954 43.961 L 112.138 40.77 L 106.885 61.83 C 104.094 61.191 101.351 60.565 98.69 59.905 L 98.69 59.836 L 80.999 55.422 L 77.562 69.118 C 77.562 69.118 87.077 71.297 86.878 71.435 C 92.096 72.679 93.011 76.117 92.88 78.867 L 86.898 102.87 C 87.352 102.981 87.798 103.123 88.232 103.296 L 86.857 102.959 L 78.469 136.58 C 77.83 138.154 76.221 140.526 72.591 139.626 C 72.721 139.811 63.267 137.302 63.267 137.302 L 56.901 151.981 L 73.594 156.106 C 76.695 156.883 79.741 157.694 82.732 158.464 L 77.424 179.778 L 90.26 183.003 L 95.513 161.923 C 99.013 162.872 102.389 163.745 105.73 164.57 L 100.498 185.554 L 113.321 188.751 L 118.629 167.485 C 140.493 171.61 156.939 169.953 163.862 150.173 C 169.438 134.249 163.58 125.063 152.078 119.075 C 160.452 117.143 166.764 111.629 168.448 100.243 Z  M 139.152 141.331 C 135.185 157.254 108.37 148.646 99.68 146.487 L 106.72 118.257 C 115.418 120.429 143.291 124.727 139.152 141.331 Z  M 143.119 100.016 C 139.503 114.503 117.185 107.139 109.945 105.338 L 116.332 79.734 C 123.565 81.535 146.88 84.904 143.119 100.016 L 143.119 100.016 Z " fill="rgb(255,255,255)"/><path d=" M 252.363 105.895 L 186.359 179.462 L 223.486 189.775 L 197.359 246.842 L 269.552 173.962 L 226.236 162.273 L 252.363 105.895 L 252.363 105.895 Z " fill="rgb(255,186,0)"/><path d=" M 332.077 58.715 L 332.077 58.715 L 332.077 58.715 Q 340.658 58.715 346.914 61.754 L 346.914 61.754 L 346.914 61.754 Q 353.171 64.793 357.283 69.977 L 357.283 69.977 L 357.283 69.977 Q 361.394 75.161 363.36 82.133 L 363.36 82.133 L 363.36 82.133 Q 365.327 89.105 365.327 97.149 L 365.327 97.149 L 365.327 97.149 Q 365.327 109.484 360.768 120.478 L 360.768 120.478 L 360.768 120.478 Q 356.21 131.471 348.344 139.605 L 348.344 139.605 L 348.344 139.605 Q 340.479 147.739 329.753 152.476 L 329.753 152.476 L 329.753 152.476 Q 319.028 157.213 306.514 157.213 L 306.514 157.213 L 306.514 157.213 Q 304.905 157.213 300.883 157.124 L 300.883 157.124 L 300.883 157.124 Q 296.861 157.034 291.677 156.319 L 291.677 156.319 L 291.677 156.319 Q 286.493 155.604 280.683 154.174 L 280.683 154.174 L 280.683 154.174 Q 274.873 152.744 269.689 150.241 L 269.689 150.241 L 300.615 20.282 L 328.323 15.991 L 317.24 62.112 L 317.24 62.112 Q 320.815 60.503 324.39 59.609 L 324.39 59.609 L 324.39 59.609 Q 327.966 58.715 332.077 58.715 Z  M 308.838 135.225 L 308.838 135.225 L 308.838 135.225 Q 315.095 135.225 320.636 132.186 L 320.636 132.186 L 320.636 132.186 Q 326.178 129.148 330.2 124.053 L 330.2 124.053 L 330.2 124.053 Q 334.222 118.958 336.546 112.523 L 336.546 112.523 L 336.546 112.523 Q 338.87 106.087 338.87 99.116 L 338.87 99.116 L 338.87 99.116 Q 338.87 90.535 336.01 85.708 L 336.01 85.708 L 336.01 85.708 Q 333.15 80.882 325.463 80.882 L 325.463 80.882 L 325.463 80.882 Q 322.96 80.882 318.938 81.776 L 318.938 81.776 L 318.938 81.776 Q 314.916 82.669 311.698 85.53 L 311.698 85.53 L 299.9 134.51 L 299.9 134.51 Q 300.973 134.689 301.777 134.868 L 301.777 134.868 L 301.777 134.868 Q 302.581 135.047 303.475 135.136 L 303.475 135.136 L 303.475 135.136 Q 304.369 135.225 305.62 135.225 L 305.62 135.225 L 305.62 135.225 Q 306.872 135.225 308.838 135.225 Z  M 421.458 60.682 L 398.934 154.71 L 372.477 154.71 L 394.823 60.682 L 421.458 60.682 Z  M 411.805 49.241 L 411.805 49.241 L 411.805 49.241 Q 406.263 49.241 401.794 45.934 L 401.794 45.934 L 401.794 45.934 Q 397.325 42.627 397.325 35.834 L 397.325 35.834 L 397.325 35.834 Q 397.325 32.08 398.845 28.773 L 398.845 28.773 L 398.845 28.773 Q 400.364 25.466 402.867 23.052 L 402.867 23.052 L 402.867 23.052 Q 405.369 20.639 408.677 19.209 L 408.677 19.209 L 408.677 19.209 Q 411.984 17.779 415.738 17.779 L 415.738 17.779 L 415.738 17.779 Q 421.279 17.779 425.748 21.086 L 425.748 21.086 L 425.748 21.086 Q 430.217 24.393 430.217 31.186 L 430.217 31.186 L 430.217 31.186 Q 430.217 34.94 428.698 38.247 L 428.698 38.247 L 428.698 38.247 Q 427.178 41.554 424.676 43.967 L 424.676 43.967 L 424.676 43.967 Q 422.173 46.381 418.866 47.811 L 418.866 47.811 L 418.866 47.811 Q 415.559 49.241 411.805 49.241 Z " fill-rule="evenodd" fill="rgb(78,78,78)"/><path d=" M 421.101 111.271 L 438.619 37.264 L 466.327 32.974 L 459.534 60.682 L 489.209 60.682 L 483.846 82.491 L 454.35 82.491 L 446.485 115.383 L 446.485 115.383 Q 445.412 119.494 445.144 123.07 L 445.144 123.07 L 445.144 123.07 Q 444.876 126.645 446.038 129.237 L 446.038 129.237 L 446.038 129.237 Q 447.2 131.829 450.06 133.259 L 450.06 133.259 L 450.06 133.259 Q 452.92 134.689 457.925 134.689 L 457.925 134.689 L 457.925 134.689 Q 462.216 134.689 466.238 133.885 L 466.238 133.885 L 466.238 133.885 Q 470.26 133.08 474.372 131.65 L 474.372 131.65 L 476.338 152.029 L 476.338 152.029 Q 470.975 153.995 464.718 155.425 L 464.718 155.425 L 464.718 155.425 Q 458.462 156.856 449.881 156.856 L 449.881 156.856 L 449.881 156.856 Q 437.547 156.856 430.754 153.191 L 430.754 153.191 L 430.754 153.191 Q 423.961 149.526 421.101 143.18 L 421.101 143.18 L 421.101 143.18 Q 418.24 136.834 418.598 128.611 L 418.598 128.611 L 418.598 128.611 Q 418.955 120.388 421.101 111.271 L 421.101 111.271 Z " fill="rgb(78,78,78)"/><path d=" M 485.09 117.17 L 485.09 117.17 L 485.09 117.17 Q 485.09 105.015 489.023 94.289 L 489.023 94.289 L 489.023 94.289 Q 492.956 83.563 500.285 75.519 L 500.285 75.519 L 500.285 75.519 Q 507.614 67.475 518.072 62.827 L 518.072 62.827 L 518.072 62.827 Q 528.53 58.179 541.4 58.179 L 541.4 58.179 L 541.4 58.179 Q 549.445 58.179 555.791 59.699 L 555.791 59.699 L 555.791 59.699 Q 562.137 61.218 567.321 63.721 L 567.321 63.721 L 558.204 84.457 L 558.204 84.457 Q 554.629 83.027 550.785 81.865 L 550.785 81.865 L 550.785 81.865 Q 546.942 80.703 541.4 80.703 L 541.4 80.703 L 541.4 80.703 Q 527.993 80.703 520.306 89.731 L 520.306 89.731 L 520.306 89.731 Q 512.62 98.758 512.62 114.31 L 512.62 114.31 L 512.62 114.31 Q 512.62 123.427 516.552 129.058 L 516.552 129.058 L 516.552 129.058 Q 520.485 134.689 531.032 134.689 L 531.032 134.689 L 531.032 134.689 Q 536.216 134.689 541.043 133.617 L 541.043 133.617 L 541.043 133.617 Q 545.869 132.544 549.623 130.935 L 549.623 130.935 L 551.59 152.208 L 551.59 152.208 Q 546.584 154.174 540.596 155.694 L 540.596 155.694 L 540.596 155.694 Q 534.607 157.213 526.027 157.213 L 526.027 157.213 L 526.027 157.213 Q 514.944 157.213 507.257 153.995 L 507.257 153.995 L 507.257 153.995 Q 499.57 150.778 494.565 145.325 L 494.565 145.325 L 494.565 145.325 Q 489.559 139.873 487.325 132.544 L 487.325 132.544 L 487.325 132.544 Q 485.09 125.215 485.09 117.17 Z " fill="rgb(78,78,78)"/><path d=" M 598.604 157.213 L 598.604 157.213 L 598.604 157.213 Q 589.13 157.213 582.158 154.353 L 582.158 154.353 L 582.158 154.353 Q 575.186 151.493 570.628 146.309 L 570.628 146.309 L 570.628 146.309 Q 566.07 141.125 563.746 134.063 L 563.746 134.063 L 563.746 134.063 Q 561.422 127.002 561.422 118.422 L 561.422 118.422 L 561.422 118.422 Q 561.422 107.696 564.908 96.97 L 564.908 96.97 L 564.908 96.97 Q 568.393 86.245 575.186 77.664 L 575.186 77.664 L 575.186 77.664 Q 581.979 69.084 591.811 63.631 L 591.811 63.631 L 591.811 63.631 Q 601.643 58.179 614.335 58.179 L 614.335 58.179 L 614.335 58.179 Q 623.631 58.179 630.692 61.039 L 630.692 61.039 L 630.692 61.039 Q 637.753 63.899 642.311 69.084 L 642.311 69.084 L 642.311 69.084 Q 646.87 74.268 649.194 81.329 L 649.194 81.329 L 649.194 81.329 Q 651.518 88.39 651.518 96.97 L 651.518 96.97 L 651.518 96.97 Q 651.518 107.696 648.121 118.422 L 648.121 118.422 L 648.121 118.422 Q 644.725 129.148 638.111 137.728 L 638.111 137.728 L 638.111 137.728 Q 631.496 146.309 621.575 151.761 L 621.575 151.761 L 621.575 151.761 Q 611.654 157.213 598.604 157.213 Z  M 611.833 80.703 L 611.833 80.703 L 611.833 80.703 Q 605.933 80.703 601.464 84.1 L 601.464 84.1 L 601.464 84.1 Q 596.995 87.496 593.956 92.68 L 593.956 92.68 L 593.956 92.68 Q 590.917 97.864 589.398 104.031 L 589.398 104.031 L 589.398 104.031 Q 587.878 110.199 587.878 115.74 L 587.878 115.74 L 587.878 115.74 Q 587.878 124.857 590.739 129.773 L 590.739 129.773 L 590.739 129.773 Q 593.599 134.689 601.107 134.689 L 601.107 134.689 L 601.107 134.689 Q 607.006 134.689 611.475 131.293 L 611.475 131.293 L 611.475 131.293 Q 615.944 127.896 618.983 122.712 L 618.983 122.712 L 618.983 122.712 Q 622.022 117.528 623.541 111.361 L 623.541 111.361 L 623.541 111.361 Q 625.061 105.193 625.061 99.652 L 625.061 99.652 L 625.061 99.652 Q 625.061 90.535 622.201 85.619 L 622.201 85.619 L 622.201 85.619 Q 619.341 80.703 611.833 80.703 Z  M 707.649 60.682 L 685.125 154.71 L 658.668 154.71 L 681.013 60.682 L 707.649 60.682 Z  M 697.996 49.241 L 697.996 49.241 L 697.996 49.241 Q 692.454 49.241 687.985 45.934 L 687.985 45.934 L 687.985 45.934 Q 683.516 42.627 683.516 35.834 L 683.516 35.834 L 683.516 35.834 Q 683.516 32.08 685.036 28.773 L 685.036 28.773 L 685.036 28.773 Q 686.555 25.466 689.058 23.052 L 689.058 23.052 L 689.058 23.052 Q 691.56 20.639 694.867 19.209 L 694.867 19.209 L 694.867 19.209 Q 698.175 17.779 701.929 17.779 L 701.929 17.779 L 701.929 17.779 Q 707.47 17.779 711.939 21.086 L 711.939 21.086 L 711.939 21.086 Q 716.408 24.393 716.408 31.186 L 716.408 31.186 L 716.408 31.186 Q 716.408 34.94 714.889 38.247 L 714.889 38.247 L 714.889 38.247 Q 713.369 41.554 710.867 43.967 L 710.867 43.967 L 710.867 43.967 Q 708.364 46.381 705.057 47.811 L 705.057 47.811 L 705.057 47.811 Q 701.75 49.241 697.996 49.241 Z  M 709.258 154.71 L 730.888 64.972 L 730.888 64.972 Q 733.927 64.078 737.591 62.916 L 737.591 62.916 L 737.591 62.916 Q 741.256 61.754 745.815 60.771 L 745.815 60.771 L 745.815 60.771 Q 750.373 59.788 756.004 59.162 L 756.004 59.162 L 756.004 59.162 Q 761.635 58.537 768.785 58.537 L 768.785 58.537 L 768.785 58.537 Q 789.879 58.537 797.745 70.692 L 797.745 70.692 L 797.745 70.692 Q 805.61 82.848 800.426 103.942 L 800.426 103.942 L 788.27 154.71 L 761.635 154.71 L 773.433 105.015 L 773.433 105.015 Q 774.506 100.367 775.131 95.987 L 775.131 95.987 L 775.131 95.987 Q 775.757 91.608 775.042 88.3 L 775.042 88.3 L 775.042 88.3 Q 774.327 84.993 771.735 82.938 L 771.735 82.938 L 771.735 82.938 Q 769.143 80.882 763.78 80.882 L 763.78 80.882 L 763.78 80.882 Q 758.596 80.882 753.233 81.954 L 753.233 81.954 L 735.893 154.71 L 709.258 154.71 Z " fill-rule="evenodd" fill="rgb(78,78,78)"/><path d=" M 287.383 206.604 L 299.414 206.604 L 298.16 211.777 L 280.054 211.777 L 286.56 184.618 L 292.673 184.618 L 287.383 206.604 Z " fill="rgb(78,78,78)"/><path d=" M 302.159 211.777 L 308.664 184.618 L 314.778 184.618 L 308.233 211.777 L 302.159 211.777 Z  M 328.259 207.074 L 328.259 207.074 L 328.259 207.074 Q 329.043 207.074 329.67 207.015 L 329.67 207.015 L 329.67 207.015 Q 330.297 206.956 330.807 206.878 L 330.807 206.878 L 333.08 197.433 L 339.193 197.433 L 335.901 211.032 L 335.901 211.032 Q 334.804 211.463 332.727 211.875 L 332.727 211.875 L 332.727 211.875 Q 330.65 212.286 327.436 212.286 L 327.436 212.286 L 327.436 212.286 Q 324.693 212.286 322.596 211.483 L 322.596 211.483 L 322.596 211.483 Q 320.5 210.679 319.089 209.19 L 319.089 209.19 L 319.089 209.19 Q 317.678 207.701 316.972 205.585 L 316.972 205.585 L 316.972 205.585 Q 316.267 203.468 316.267 200.804 L 316.267 200.804 L 316.267 200.804 Q 316.267 197.747 317.345 194.729 L 317.345 194.729 L 317.345 194.729 Q 318.422 191.711 320.539 189.34 L 320.539 189.34 L 320.539 189.34 Q 322.655 186.969 325.79 185.48 L 325.79 185.48 L 325.79 185.48 Q 328.925 183.991 333.001 183.991 L 333.001 183.991 L 333.001 183.991 Q 334.882 183.991 336.979 184.54 L 336.979 184.54 L 336.979 184.54 Q 339.076 185.088 340.761 186.186 L 340.761 186.186 L 338.566 190.928 L 338.566 190.928 Q 337.195 190.065 335.647 189.634 L 335.647 189.634 L 335.647 189.634 Q 334.099 189.203 332.609 189.203 L 332.609 189.203 L 332.609 189.203 Q 330.219 189.203 328.357 190.105 L 328.357 190.105 L 328.357 190.105 Q 326.496 191.006 325.202 192.554 L 325.202 192.554 L 325.202 192.554 Q 323.909 194.102 323.243 196.14 L 323.243 196.14 L 323.243 196.14 Q 322.577 198.178 322.577 200.451 L 322.577 200.451 L 322.577 200.451 Q 322.577 203.9 324.007 205.487 L 324.007 205.487 L 324.007 205.487 Q 325.438 207.074 328.259 207.074 Z  M 361.1 195.043 L 363.609 184.618 L 369.722 184.618 L 363.178 211.777 L 357.064 211.777 L 359.846 200.216 L 350.206 200.216 L 347.423 211.777 L 341.349 211.777 L 347.854 184.618 L 353.968 184.618 L 351.46 195.043 L 361.1 195.043 Z  M 373.328 184.618 L 395.353 184.618 L 394.099 189.752 L 386.143 189.752 L 380.852 211.777 L 374.739 211.777 L 380.029 189.752 L 372.074 189.752 L 373.328 184.618 Z  M 415.536 211.777 L 410.95 211.777 L 410.95 211.777 Q 409.304 207.152 407.286 202.528 L 407.286 202.528 L 407.286 202.528 Q 405.268 197.903 402.916 193.788 L 402.916 193.788 L 398.605 211.777 L 392.609 211.777 L 399.115 184.618 L 403.779 184.618 L 403.779 184.618 Q 404.68 185.99 405.718 187.851 L 405.718 187.851 L 405.718 187.851 Q 406.757 189.713 407.854 191.868 L 407.854 191.868 L 407.854 191.868 Q 408.952 194.024 410.049 196.355 L 410.049 196.355 L 410.049 196.355 Q 411.146 198.687 412.126 200.96 L 412.126 200.96 L 416.006 184.618 L 422.08 184.618 L 415.536 211.777 Z  M 421.688 211.777 L 428.194 184.618 L 434.308 184.618 L 427.763 211.777 L 421.688 211.777 Z  M 456.842 211.777 L 452.257 211.777 L 452.257 211.777 Q 450.611 207.152 448.592 202.528 L 448.592 202.528 L 448.592 202.528 Q 446.574 197.903 444.223 193.788 L 444.223 193.788 L 439.912 211.777 L 433.916 211.777 L 440.421 184.618 L 445.085 184.618 L 445.085 184.618 Q 445.986 185.99 447.025 187.851 L 447.025 187.851 L 447.025 187.851 Q 448.063 189.713 449.161 191.868 L 449.161 191.868 L 449.161 191.868 Q 450.258 194.024 451.355 196.355 L 451.355 196.355 L 451.355 196.355 Q 452.453 198.687 453.432 200.96 L 453.432 200.96 L 457.312 184.618 L 463.387 184.618 L 456.842 211.777 Z  M 476.868 207.074 L 476.868 207.074 L 476.868 207.074 Q 477.652 207.074 478.279 207.015 L 478.279 207.015 L 478.279 207.015 Q 478.906 206.956 479.415 206.878 L 479.415 206.878 L 481.688 197.433 L 487.802 197.433 L 484.51 211.032 L 484.51 211.032 Q 483.413 211.463 481.336 211.875 L 481.336 211.875 L 481.336 211.875 Q 479.259 212.286 476.045 212.286 L 476.045 212.286 L 476.045 212.286 Q 473.302 212.286 471.205 211.483 L 471.205 211.483 L 471.205 211.483 Q 469.108 210.679 467.698 209.19 L 467.698 209.19 L 467.698 209.19 Q 466.287 207.701 465.581 205.585 L 465.581 205.585 L 465.581 205.585 Q 464.876 203.468 464.876 200.804 L 464.876 200.804 L 464.876 200.804 Q 464.876 197.747 465.954 194.729 L 465.954 194.729 L 465.954 194.729 Q 467.031 191.711 469.148 189.34 L 469.148 189.34 L 469.148 189.34 Q 471.264 186.969 474.399 185.48 L 474.399 185.48 L 474.399 185.48 Q 477.534 183.991 481.61 183.991 L 481.61 183.991 L 481.61 183.991 Q 483.491 183.991 485.588 184.54 L 485.588 184.54 L 485.588 184.54 Q 487.685 185.088 489.37 186.186 L 489.37 186.186 L 487.175 190.928 L 487.175 190.928 Q 485.803 190.065 484.255 189.634 L 484.255 189.634 L 484.255 189.634 Q 482.707 189.203 481.218 189.203 L 481.218 189.203 L 481.218 189.203 Q 478.828 189.203 476.966 190.105 L 476.966 190.105 L 476.966 190.105 Q 475.104 191.006 473.811 192.554 L 473.811 192.554 L 473.811 192.554 Q 472.518 194.102 471.852 196.14 L 471.852 196.14 L 471.852 196.14 Q 471.185 198.178 471.185 200.451 L 471.185 200.451 L 471.185 200.451 Q 471.185 203.9 472.616 205.487 L 472.616 205.487 L 472.616 205.487 Q 474.046 207.074 476.868 207.074 Z " fill-rule="evenodd" fill="rgb(78,78,78)"/><path d=" M 519.462 204.801 L 507.627 204.801 L 503.786 211.777 L 499.632 211.777 L 499.632 211.777 Q 504.021 203.86 508.195 197.198 L 508.195 197.198 L 508.195 197.198 Q 512.369 190.536 516.445 184.618 L 516.445 184.618 L 520.168 184.618 L 520.168 184.618 Q 520.755 187.557 521.245 190.555 L 521.245 190.555 L 521.245 190.555 Q 521.735 193.553 522.205 196.845 L 522.205 196.845 L 522.205 196.845 Q 522.676 200.137 523.107 203.821 L 523.107 203.821 L 523.107 203.821 Q 523.538 207.505 524.008 211.777 L 524.008 211.777 L 520.168 211.777 L 520.168 211.777 Q 519.972 210.013 519.815 208.23 L 519.815 208.23 L 519.815 208.23 Q 519.658 206.447 519.462 204.801 L 519.462 204.801 L 519.462 204.801 Z  M 509.39 201.744 L 519.109 201.744 L 519.109 201.744 Q 518.796 198.57 518.384 195.434 L 518.384 195.434 L 518.384 195.434 Q 517.973 192.299 517.424 188.968 L 517.424 188.968 L 517.424 188.968 Q 516.053 190.967 514.015 194.122 L 514.015 194.122 L 514.015 194.122 Q 511.977 197.276 509.39 201.744 L 509.39 201.744 L 509.39 201.744 Z " fill-rule="evenodd" fill="rgb(78,78,78)"/><path d=" M 537.921 212.365 L 537.921 212.365 L 537.921 212.365 Q 535.373 212.365 533.433 211.62 L 533.433 211.62 L 533.433 211.62 Q 531.494 210.875 530.2 209.504 L 530.2 209.504 L 530.2 209.504 Q 528.907 208.132 528.26 206.192 L 528.26 206.192 L 528.26 206.192 Q 527.614 204.252 527.614 201.822 L 527.614 201.822 L 527.614 201.822 Q 527.614 198.295 528.731 195.082 L 528.731 195.082 L 528.731 195.082 Q 529.848 191.868 531.905 189.399 L 531.905 189.399 L 531.905 189.399 Q 533.963 186.93 536.863 185.461 L 536.863 185.461 L 536.863 185.461 Q 539.763 183.991 543.329 183.991 L 543.329 183.991 L 543.329 183.991 Q 546.386 183.991 548.208 184.618 L 548.208 184.618 L 548.208 184.618 Q 550.03 185.245 550.814 185.794 L 550.814 185.794 L 549.247 188.929 L 549.247 188.929 Q 548.345 188.341 546.797 187.812 L 546.797 187.812 L 546.797 187.812 Q 545.249 187.283 543.133 187.283 L 543.133 187.283 L 543.133 187.283 Q 540.429 187.283 538.273 188.557 L 538.273 188.557 L 538.273 188.557 Q 536.118 189.83 534.629 191.849 L 534.629 191.849 L 534.629 191.849 Q 533.14 193.867 532.356 196.395 L 532.356 196.395 L 532.356 196.395 Q 531.572 198.922 531.572 201.391 L 531.572 201.391 L 531.572 201.391 Q 531.572 209.033 538.195 209.033 L 538.195 209.033 L 538.195 209.033 Q 539.606 209.033 540.723 208.837 L 540.723 208.837 L 540.723 208.837 Q 541.84 208.642 542.702 208.387 L 542.702 208.387 L 542.702 208.387 Q 543.564 208.132 544.23 207.819 L 544.23 207.819 L 544.23 207.819 Q 544.897 207.505 545.406 207.27 L 545.406 207.27 L 545.876 210.562 L 545.876 210.562 Q 545.406 210.836 544.642 211.15 L 544.642 211.15 L 544.642 211.15 Q 543.878 211.463 542.859 211.738 L 542.859 211.738 L 542.859 211.738 Q 541.84 212.012 540.586 212.188 L 540.586 212.188 L 540.586 212.188 Q 539.332 212.365 537.921 212.365 Z " fill="rgb(78,78,78)"/><path d=" M 561.043 212.365 L 561.043 212.365 L 561.043 212.365 Q 558.496 212.365 556.556 211.62 L 556.556 211.62 L 556.556 211.62 Q 554.616 210.875 553.322 209.504 L 553.322 209.504 L 553.322 209.504 Q 552.029 208.132 551.383 206.192 L 551.383 206.192 L 551.383 206.192 Q 550.736 204.252 550.736 201.822 L 550.736 201.822 L 550.736 201.822 Q 550.736 198.295 551.853 195.082 L 551.853 195.082 L 551.853 195.082 Q 552.97 191.868 555.027 189.399 L 555.027 189.399 L 555.027 189.399 Q 557.085 186.93 559.985 185.461 L 559.985 185.461 L 559.985 185.461 Q 562.885 183.991 566.451 183.991 L 566.451 183.991 L 566.451 183.991 Q 569.508 183.991 571.33 184.618 L 571.33 184.618 L 571.33 184.618 Q 573.153 185.245 573.936 185.794 L 573.936 185.794 L 572.369 188.929 L 572.369 188.929 Q 571.467 188.341 569.919 187.812 L 569.919 187.812 L 569.919 187.812 Q 568.371 187.283 566.255 187.283 L 566.255 187.283 L 566.255 187.283 Q 563.551 187.283 561.396 188.557 L 561.396 188.557 L 561.396 188.557 Q 559.24 189.83 557.751 191.849 L 557.751 191.849 L 557.751 191.849 Q 556.262 193.867 555.478 196.395 L 555.478 196.395 L 555.478 196.395 Q 554.694 198.922 554.694 201.391 L 554.694 201.391 L 554.694 201.391 Q 554.694 209.033 561.317 209.033 L 561.317 209.033 L 561.317 209.033 Q 562.728 209.033 563.845 208.837 L 563.845 208.837 L 563.845 208.837 Q 564.962 208.642 565.824 208.387 L 565.824 208.387 L 565.824 208.387 Q 566.686 208.132 567.352 207.819 L 567.352 207.819 L 567.352 207.819 Q 568.019 207.505 568.528 207.27 L 568.528 207.27 L 568.998 210.562 L 568.998 210.562 Q 568.528 210.836 567.764 211.15 L 567.764 211.15 L 567.764 211.15 Q 567 211.463 565.981 211.738 L 565.981 211.738 L 565.981 211.738 Q 564.962 212.012 563.708 212.188 L 563.708 212.188 L 563.708 212.188 Q 562.454 212.365 561.043 212.365 Z  M 589.534 211.777 L 572.565 211.777 L 579.07 184.618 L 595.099 184.618 L 594.354 187.792 L 582.088 187.792 L 580.128 195.983 L 591.023 195.983 L 590.279 199.079 L 579.423 199.079 L 577.111 208.602 L 590.279 208.602 L 589.534 211.777 Z " fill-rule="evenodd" fill="rgb(78,78,78)"/><path d=" M 607.522 184.344 L 607.522 184.344 L 607.522 184.344 Q 612.264 184.344 614.675 186.146 L 614.675 186.146 L 614.675 186.146 Q 617.085 187.949 617.085 191.398 L 617.085 191.398 L 617.085 191.398 Q 617.085 194.063 616.085 196.003 L 616.085 196.003 L 616.085 196.003 Q 615.086 197.943 613.244 199.197 L 613.244 199.197 L 613.244 199.197 Q 611.402 200.451 608.816 201.058 L 608.816 201.058 L 608.816 201.058 Q 606.229 201.666 603.055 201.666 L 603.055 201.666 L 600.351 201.666 L 597.921 211.777 L 594.119 211.777 L 600.546 184.971 L 600.546 184.971 Q 602.192 184.579 604.034 184.461 L 604.034 184.461 L 604.034 184.461 Q 605.876 184.344 607.522 184.344 Z  M 607.052 187.557 L 607.052 187.557 L 607.052 187.557 Q 604.27 187.557 603.682 187.714 L 603.682 187.714 L 601.095 198.491 L 603.564 198.491 L 603.564 198.491 Q 605.21 198.491 606.934 198.197 L 606.934 198.197 L 606.934 198.197 Q 608.659 197.903 610.03 197.159 L 610.03 197.159 L 610.03 197.159 Q 611.402 196.414 612.284 195.101 L 612.284 195.101 L 612.284 195.101 Q 613.166 193.788 613.166 191.711 L 613.166 191.711 L 613.166 191.711 Q 613.166 189.478 611.52 188.517 L 611.52 188.517 L 611.52 188.517 Q 609.874 187.557 607.052 187.557 Z " fill-rule="evenodd" fill="rgb(78,78,78)"/><path d=" M 619.944 184.618 L 640.127 184.618 L 639.382 187.792 L 631.192 187.792 L 625.431 211.777 L 621.629 211.777 L 627.39 187.792 L 619.2 187.792 L 619.944 184.618 Z  M 654.627 211.777 L 637.658 211.777 L 644.164 184.618 L 660.192 184.618 L 659.448 187.792 L 647.181 187.792 L 645.222 195.983 L 656.117 195.983 L 655.372 199.079 L 644.516 199.079 L 642.204 208.602 L 655.372 208.602 L 654.627 211.777 Z  M 672.576 187.557 L 672.576 187.557 L 672.576 187.557 Q 669.637 187.557 669.049 187.714 L 669.049 187.714 L 664.033 208.642 L 664.033 208.642 Q 664.347 208.72 665.091 208.779 L 665.091 208.779 L 665.091 208.779 Q 665.836 208.837 667.521 208.837 L 667.521 208.837 L 667.521 208.837 Q 670.617 208.837 673.106 207.799 L 673.106 207.799 L 673.106 207.799 Q 675.594 206.76 677.318 204.899 L 677.318 204.899 L 677.318 204.899 Q 679.043 203.037 679.983 200.47 L 679.983 200.47 L 679.983 200.47 Q 680.924 197.903 680.924 194.847 L 680.924 194.847 L 680.924 194.847 Q 680.924 191.398 678.925 189.478 L 678.925 189.478 L 678.925 189.478 Q 676.927 187.557 672.576 187.557 Z  M 672.89 184.344 L 672.89 184.344 L 672.89 184.344 Q 678.925 184.344 681.904 187.185 L 681.904 187.185 L 681.904 187.185 Q 684.882 190.026 684.882 194.847 L 684.882 194.847 L 684.882 194.847 Q 684.882 198.217 683.824 201.333 L 683.824 201.333 L 683.824 201.333 Q 682.766 204.448 680.532 206.839 L 680.532 206.839 L 680.532 206.839 Q 678.298 209.229 674.83 210.64 L 674.83 210.64 L 674.83 210.64 Q 671.362 212.051 666.541 212.051 L 666.541 212.051 L 666.541 212.051 Q 664.895 212.051 662.975 211.894 L 662.975 211.894 L 662.975 211.894 Q 661.055 211.738 659.605 211.346 L 659.605 211.346 L 665.914 184.971 L 665.914 184.971 Q 667.56 184.579 669.402 184.461 L 669.402 184.461 L 669.402 184.461 Q 671.244 184.344 672.89 184.344 Z  M 722.309 184.618 L 715.803 211.777 L 712.002 211.777 L 715.019 199.158 L 702.439 199.158 L 699.422 211.777 L 695.62 211.777 L 702.126 184.618 L 705.927 184.618 L 703.184 195.983 L 715.764 195.983 L 718.507 184.618 L 722.309 184.618 Z  M 739.278 211.777 L 722.309 211.777 L 728.814 184.618 L 744.843 184.618 L 744.098 187.792 L 731.832 187.792 L 729.872 195.983 L 740.767 195.983 L 740.023 199.079 L 729.167 199.079 L 726.855 208.602 L 740.023 208.602 L 739.278 211.777 Z  M 757.541 184.344 L 757.541 184.344 L 757.541 184.344 Q 761.891 184.344 764.438 186.107 L 764.438 186.107 L 764.438 186.107 Q 766.985 187.871 766.985 191.28 L 766.985 191.28 L 766.985 191.28 Q 766.985 194.729 764.967 197.061 L 764.967 197.061 L 764.967 197.061 Q 762.949 199.393 759.304 200.412 L 759.304 200.412 L 759.304 200.412 Q 759.774 201.235 760.402 202.508 L 760.402 202.508 L 760.402 202.508 Q 761.029 203.782 761.695 205.33 L 761.695 205.33 L 761.695 205.33 Q 762.361 206.878 762.988 208.544 L 762.988 208.544 L 762.988 208.544 Q 763.615 210.209 764.085 211.777 L 764.085 211.777 L 760.206 211.777 L 760.206 211.777 Q 759.657 210.288 759.069 208.759 L 759.069 208.759 L 759.069 208.759 Q 758.481 207.231 757.874 205.82 L 757.874 205.82 L 757.874 205.82 Q 757.266 204.409 756.659 203.175 L 756.659 203.175 L 756.659 203.175 Q 756.051 201.94 755.542 200.999 L 755.542 200.999 L 755.542 200.999 Q 755.032 201.039 754.523 201.058 L 754.523 201.058 L 754.523 201.058 Q 754.014 201.078 753.504 201.078 L 753.504 201.078 L 750.486 201.078 L 747.939 211.777 L 744.138 211.777 L 750.565 184.971 L 750.565 184.971 Q 752.211 184.579 754.053 184.461 L 754.053 184.461 L 754.053 184.461 Q 755.895 184.344 757.541 184.344 Z  M 757.07 187.557 L 757.07 187.557 L 757.07 187.557 Q 754.288 187.557 753.7 187.714 L 753.7 187.714 L 751.231 197.982 L 753.543 197.982 L 753.543 197.982 Q 755.15 197.982 756.835 197.747 L 756.835 197.747 L 756.835 197.747 Q 758.52 197.512 759.912 196.826 L 759.912 196.826 L 759.912 196.826 Q 761.303 196.14 762.185 194.905 L 762.185 194.905 L 762.185 194.905 Q 763.066 193.671 763.066 191.633 L 763.066 191.633 L 763.066 191.633 Q 763.066 189.438 761.401 188.498 L 761.401 188.498 L 761.401 188.498 Q 759.735 187.557 757.07 187.557 Z  M 784.974 211.777 L 768.004 211.777 L 774.51 184.618 L 790.539 184.618 L 789.794 187.792 L 777.528 187.792 L 775.568 195.983 L 786.463 195.983 L 785.718 199.079 L 774.863 199.079 L 772.55 208.602 L 785.718 208.602 L 784.974 211.777 Z " fill-rule="evenodd" fill="rgb(78,78,78)"/></g></g></svg>