<?xml version="1.0" encoding="UTF-8" standalone="no"?><!-- Generator: Gravit.io --><svg xmlns="http://www.w3.org/2000/svg" xmlns:xlink="http://www.w3.org/1999/xlink" style="isolation:isolate" viewBox="0 0 572.751 181.116" width="572.751pt" height="181.116pt"><defs><clipPath id="_clipPath_Rxx8sAzCkkP9oGxooJaBPLxq4oIs8vHp"><rect width="572.751" height="181.116"/></clipPath></defs><g clip-path="url(#_clipPath_Rxx8sAzCkkP9oGxooJaBPLxq4oIs8vHp)"><g><path d=" M 163.645 89.701 C 163.426 50.031 134.781 16.233 95.682 9.516 C 56.584 2.799 18.301 25.097 4.854 62.42 C -8.593 99.742 6.672 141.334 41.071 161.096 C 75.469 180.858 119.088 173.096 144.557 142.681 L 121.788 136.357 L 163.645 89.701 Z " fill="rgb(255,144,0)"/><path d=" M 117.914 78.497 C 119.545 67.61 111.253 61.758 99.919 57.855 L 103.61 43.108 L 94.634 40.87 L 91.053 55.227 C 88.695 54.64 86.274 54.086 83.863 53.538 L 87.468 39.099 L 78.497 36.866 L 74.82 51.608 C 72.866 51.16 70.945 50.722 69.083 50.26 L 69.083 50.212 L 56.699 47.122 L 54.293 56.709 C 54.293 56.709 60.954 58.235 60.814 58.331 C 64.467 59.202 65.107 61.609 65.016 63.534 L 60.829 80.336 C 61.147 80.414 61.458 80.513 61.763 80.634 L 60.8 80.398 L 54.928 103.933 C 54.481 105.035 53.355 106.695 50.813 106.065 C 50.905 106.195 44.287 104.438 44.287 104.438 L 39.831 114.714 L 51.516 117.601 C 53.687 118.145 55.819 118.713 57.912 119.252 L 54.197 134.172 L 63.182 136.429 L 66.859 121.673 C 69.309 122.337 71.672 122.948 74.011 123.526 L 70.349 138.215 L 79.325 140.452 L 83.04 125.566 C 98.345 128.454 109.857 127.294 114.704 113.448 C 118.607 102.301 114.506 95.871 106.454 91.679 C 112.316 90.327 116.735 86.467 117.914 78.497 Z  M 97.406 107.258 C 94.629 118.405 75.859 112.379 69.776 110.868 L 74.704 91.107 C 80.792 92.628 100.304 95.636 97.406 107.258 Z  M 100.183 78.338 C 97.652 88.479 82.029 83.324 76.961 82.063 L 81.433 64.14 C 86.496 65.401 102.816 67.76 100.183 78.338 L 100.183 78.338 Z " fill="rgb(255,255,255)"/><path d=" M 176.654 82.453 L 130.451 133.95 L 156.44 141.17 L 138.152 181.116 L 188.686 130.1 L 158.365 121.918 L 176.654 82.453 L 176.654 82.453 Z " fill="rgb(255,186,0)"/><g clip-path="url(#_clipPath_ogmY3mKyHXr3Yk1mkhisIFHy3YFf1P1k)"><text transform="matrix(0.481,0,0,0.481,180.023,116.624)" style="font-family:'Ubuntu';font-weight:700;font-size:260px;font-style:italic;font-variant-ligatures:none;fill:#4E4E4E;stroke:none;">bi</text></g><defs><clipPath id="_clipPath_ogmY3mKyHXr3Yk1mkhisIFHy3YFf1P1k"><rect x="0" y="0" width="226" height="291.46" transform="matrix(0.481,0,0,0.481,180.023,0)"/></clipPath></defs><g clip-path="url(#_clipPath_UIb13wgD3pXZGRJMlD9SjicxvLEdbYlE)"><text transform="matrix(0.481,0,0,0.481,280.38,116.624)" style="font-family:'Ubuntu';font-weight:700;font-size:260px;font-style:italic;font-variant-ligatures:none;fill:#4E4E4E;stroke:none;">t</text></g><defs><clipPath id="_clipPath_UIb13wgD3pXZGRJMlD9SjicxvLEdbYlE"><rect x="0" y="0" width="111" height="291.46" transform="matrix(0.481,0,0,0.481,280.38,0)"/></clipPath></defs><g clip-path="url(#_clipPath_pY9sawyDLBaeqjETL3NPhzidL3LJLJbE)"><text transform="matrix(0.481,0,0,0.481,327.05,116.624)" style="font-family:'Ubuntu';font-weight:700;font-size:260px;font-style:italic;font-variant-ligatures:none;fill:#4E4E4E;stroke:none;">c</text></g><defs><clipPath id="_clipPath_pY9sawyDLBaeqjETL3NPhzidL3LJLJbE"><rect x="0" y="0" width="127" height="291.46" transform="matrix(0.481,0,0,0.481,327.05,0)"/></clipPath></defs><g clip-path="url(#_clipPath_ZR8zGmHn8T4YnpSxqhLhByDjG19O0ce6)"><text transform="matrix(0.481,0,0,0.481,380.482,116.624)" style="font-family:'Ubuntu';font-weight:700;font-size:260px;font-style:italic;font-variant-ligatures:none;fill:#4E4E4E;stroke:none;">oin</text></g><defs><clipPath id="_clipPath_ZR8zGmHn8T4YnpSxqhLhByDjG19O0ce6"><rect x="0" y="0" width="373" height="291.46" transform="matrix(0.481,0,0,0.481,380.482,0)"/></clipPath></defs><g clip-path="url(#_clipPath_R2oLNBDXG0YPxGm4ZkR2wxTl7IrtsVB1)"><text transform="matrix(0.481,0,0,0.481,193.98,156.571)" style="font-family:'Ubuntu';font-weight:700;font-size:57px;font-style:italic;font-variant-ligatures:none;fill:#4E4E4E;stroke:none;">L</text></g><defs><clipPath id="_clipPath_R2oLNBDXG0YPxGm4ZkR2wxTl7IrtsVB1"><rect x="0" y="0" width="35" height="63.897" transform="matrix(0.481,0,0,0.481,193.98,131.003)"/></clipPath></defs><path d=" M 211.511 156.571 L 216.065 137.56 L 220.344 137.56 L 215.763 156.571 L 211.511 156.571 L 211.511 156.571 Z  M 229.781 153.279 L 229.781 153.279 L 229.781 153.279 Q 230.33 153.279 230.769 153.238 L 230.769 153.238 L 230.769 153.238 Q 231.208 153.196 231.565 153.141 L 231.565 153.141 L 233.156 146.53 L 237.435 146.53 L 235.131 156.049 L 235.131 156.049 Q 234.363 156.351 232.909 156.639 L 232.909 156.639 L 232.909 156.639 Q 231.455 156.927 229.205 156.927 L 229.205 156.927 L 229.205 156.927 Q 227.285 156.927 225.817 156.365 L 225.817 156.365 L 225.817 156.365 Q 224.35 155.802 223.362 154.76 L 223.362 154.76 L 223.362 154.76 Q 222.375 153.718 221.881 152.236 L 221.881 152.236 L 221.881 152.236 Q 221.387 150.755 221.387 148.889 L 221.387 148.889 L 221.387 148.889 Q 221.387 146.75 222.141 144.637 L 222.141 144.637 L 222.141 144.637 Q 222.896 142.525 224.377 140.865 L 224.377 140.865 L 224.377 140.865 Q 225.859 139.205 228.053 138.163 L 228.053 138.163 L 228.053 138.163 Q 230.248 137.121 233.101 137.121 L 233.101 137.121 L 233.101 137.121 Q 234.418 137.121 235.885 137.505 L 235.885 137.505 L 235.885 137.505 Q 237.353 137.889 238.533 138.657 L 238.533 138.657 L 236.996 141.976 L 236.996 141.976 Q 236.036 141.373 234.953 141.071 L 234.953 141.071 L 234.953 141.071 Q 233.869 140.769 232.827 140.769 L 232.827 140.769 L 232.827 140.769 Q 231.153 140.769 229.85 141.4 L 229.85 141.4 L 229.85 141.4 Q 228.547 142.031 227.642 143.115 L 227.642 143.115 L 227.642 143.115 Q 226.736 144.198 226.27 145.625 L 226.27 145.625 L 226.27 145.625 Q 225.804 147.051 225.804 148.642 L 225.804 148.642 L 225.804 148.642 Q 225.804 151.057 226.805 152.168 L 226.805 152.168 L 226.805 152.168 Q 227.806 153.279 229.781 153.279 Z  M 252.77 144.857 L 254.526 137.56 L 258.806 137.56 L 254.224 156.571 L 249.945 156.571 L 251.892 148.478 L 245.144 148.478 L 243.196 156.571 L 238.944 156.571 L 243.498 137.56 L 247.778 137.56 L 246.022 144.857 L 252.77 144.857 L 252.77 144.857 Z  M 261.329 137.56 L 276.747 137.56 L 275.869 141.153 L 270.3 141.153 L 266.597 156.571 L 262.317 156.571 L 266.021 141.153 L 260.452 141.153 L 261.329 137.56 L 261.329 137.56 Z  M 290.875 156.571 L 287.665 156.571 L 287.665 156.571 Q 286.513 153.334 285.1 150.096 L 285.1 150.096 L 285.1 150.096 Q 283.687 146.859 282.041 143.979 L 282.041 143.979 L 279.024 156.571 L 274.827 156.571 L 279.38 137.56 L 282.645 137.56 L 282.645 137.56 Q 283.276 138.52 284.003 139.823 L 284.003 139.823 L 284.003 139.823 Q 284.73 141.126 285.498 142.635 L 285.498 142.635 L 285.498 142.635 Q 286.266 144.143 287.034 145.776 L 287.034 145.776 L 287.034 145.776 Q 287.802 147.408 288.488 148.999 L 288.488 148.999 L 291.204 137.56 L 295.456 137.56 L 290.875 156.571 L 290.875 156.571 Z  M 295.182 156.571 L 299.736 137.56 L 304.015 137.56 L 299.434 156.571 L 295.182 156.571 L 295.182 156.571 Z  M 319.789 156.571 L 316.58 156.571 L 316.58 156.571 Q 315.427 153.334 314.015 150.096 L 314.015 150.096 L 314.015 150.096 Q 312.602 146.859 310.956 143.979 L 310.956 143.979 L 307.938 156.571 L 303.741 156.571 L 308.295 137.56 L 311.559 137.56 L 311.559 137.56 Q 312.19 138.52 312.917 139.823 L 312.917 139.823 L 312.917 139.823 Q 313.644 141.126 314.412 142.635 L 314.412 142.635 L 314.412 142.635 Q 315.181 144.143 315.949 145.776 L 315.949 145.776 L 315.949 145.776 Q 316.717 147.408 317.403 148.999 L 317.403 148.999 L 320.119 137.56 L 324.371 137.56 L 319.789 156.571 L 319.789 156.571 Z  M 333.808 153.279 L 333.808 153.279 L 333.808 153.279 Q 334.356 153.279 334.795 153.238 L 334.795 153.238 L 334.795 153.238 Q 335.234 153.196 335.591 153.141 L 335.591 153.141 L 337.182 146.53 L 341.461 146.53 L 339.157 156.049 L 339.157 156.049 Q 338.389 156.351 336.935 156.639 L 336.935 156.639 L 336.935 156.639 Q 335.481 156.927 333.232 156.927 L 333.232 156.927 L 333.232 156.927 Q 331.311 156.927 329.844 156.365 L 329.844 156.365 L 329.844 156.365 Q 328.376 155.802 327.388 154.76 L 327.388 154.76 L 327.388 154.76 Q 326.401 153.718 325.907 152.236 L 325.907 152.236 L 325.907 152.236 Q 325.413 150.755 325.413 148.889 L 325.413 148.889 L 325.413 148.889 Q 325.413 146.75 326.168 144.637 L 326.168 144.637 L 326.168 144.637 Q 326.922 142.525 328.403 140.865 L 328.403 140.865 L 328.403 140.865 Q 329.885 139.205 332.079 138.163 L 332.079 138.163 L 332.079 138.163 Q 334.274 137.121 337.127 137.121 L 337.127 137.121 L 337.127 137.121 Q 338.444 137.121 339.911 137.505 L 339.911 137.505 L 339.911 137.505 Q 341.379 137.889 342.559 138.657 L 342.559 138.657 L 341.023 141.976 L 341.023 141.976 Q 340.062 141.373 338.979 141.071 L 338.979 141.071 L 338.979 141.071 Q 337.895 140.769 336.853 140.769 L 336.853 140.769 L 336.853 140.769 Q 335.179 140.769 333.876 141.4 L 333.876 141.4 L 333.876 141.4 Q 332.573 142.031 331.668 143.115 L 331.668 143.115 L 331.668 143.115 Q 330.763 144.198 330.296 145.625 L 330.296 145.625 L 330.296 145.625 Q 329.83 147.051 329.83 148.642 L 329.83 148.642 L 329.83 148.642 Q 329.83 151.057 330.831 152.168 L 330.831 152.168 L 330.831 152.168 Q 331.832 153.279 333.808 153.279 Z " fill-rule="evenodd" fill="rgb(78,78,78)"/><g clip-path="url(#_clipPath_aOPnCzDEkgx2PCx7aatEImbrFErCE9Or)"><text transform="matrix(0.481,0,0,0.481,349.468,156.571)" style="font-family:'Ubuntu';font-weight:400;font-size:57px;font-style:italic;font-variant-ligatures:none;fill:#4E4E4E;stroke:none;">A</text></g><defs><clipPath id="_clipPath_aOPnCzDEkgx2PCx7aatEImbrFErCE9Or"><rect x="0" y="0" width="39" height="63.897" transform="matrix(0.481,0,0,0.481,349.468,131.003)"/></clipPath></defs><g clip-path="url(#_clipPath_n06Ddt0MmkhxJGf0yX8w0EJkdv4aXcyq)"><text transform="matrix(0.481,0,0,0.481,365.928,156.571)" style="font-family:'Ubuntu';font-weight:400;font-size:57px;font-style:italic;font-variant-ligatures:none;fill:#4E4E4E;stroke:none;">C</text></g><defs><clipPath id="_clipPath_n06Ddt0MmkhxJGf0yX8w0EJkdv4aXcyq"><rect x="0" y="0" width="37" height="63.897" transform="matrix(0.481,0,0,0.481,365.928,131.003)"/></clipPath></defs><g clip-path="url(#_clipPath_DV6GKWV3qeujTuj8BNpXNvHDcAabzHcI)"><text transform="matrix(0.481,0,0,0.481,382.113,156.571)" style="font-family:'Ubuntu';font-weight:400;font-size:57px;font-style:italic;font-variant-ligatures:none;fill:#4E4E4E;stroke:none;">CE</text></g><defs><clipPath id="_clipPath_DV6GKWV3qeujTuj8BNpXNvHDcAabzHcI"><rect x="0" y="0" width="68" height="63.897" transform="matrix(0.481,0,0,0.481,382.113,131.003)"/></clipPath></defs><g clip-path="url(#_clipPath_y2w5crr54BNayiEAO1W1W1ESU8WcfwPx)"><text transform="matrix(0.481,0,0,0.481,413.661,156.571)" style="font-family:'Ubuntu';font-weight:400;font-size:57px;font-style:italic;font-variant-ligatures:none;fill:#4E4E4E;stroke:none;">P</text></g><defs><clipPath id="_clipPath_y2w5crr54BNayiEAO1W1W1ESU8WcfwPx"><rect x="0" y="0" width="36" height="63.897" transform="matrix(0.481,0,0,0.481,413.661,131.003)"/></clipPath></defs><g clip-path="url(#_clipPath_5yFKxid31lsBIp99rrnkTWcLVnmZGp7V)"><text transform="matrix(0.481,0,0,0.481,428.913,156.571)" style="font-family:'Ubuntu';font-weight:400;font-size:57px;font-style:italic;font-variant-ligatures:none;fill:#4E4E4E;stroke:none;">TED HERE</text></g><defs><clipPath id="_clipPath_5yFKxid31lsBIp99rrnkTWcLVnmZGp7V"><rect x="0" y="0" width="255" height="63.897" transform="matrix(0.481,0,0,0.481,428.913,131.003)"/></clipPath></defs></g></g></svg>