<?xml version="1.0" encoding="UTF-8" standalone="no"?><!-- Generator: Gravit.io --><svg xmlns="http://www.w3.org/2000/svg" xmlns:xlink="http://www.w3.org/1999/xlink" style="isolation:isolate" viewBox="0 0 812.751 258.737" width="812.751pt" height="258.737pt"><defs><clipPath id="_clipPath_16Y87hQ4gbyywD9CcfsUWaXPNLazDWUt"><rect width="812.751" height="258.737"/></clipPath></defs><g clip-path="url(#_clipPath_16Y87hQ4gbyywD9CcfsUWaXPNLazDWUt)"><g><path d=" M 233.779 128.145 C 233.466 71.473 192.544 23.19 136.689 13.594 C 80.835 3.998 26.144 35.853 6.934 89.171 C -12.275 142.489 9.532 201.905 58.672 230.137 C 107.813 258.369 170.126 247.28 206.511 203.83 L 173.983 194.795 L 233.779 128.145 Z " fill="rgb(255,144,0)"/><path d=" M 168.448 112.139 C 170.779 96.586 158.933 88.226 142.741 82.65 L 148.014 61.583 L 135.192 58.386 L 130.076 78.896 C 126.707 78.057 123.249 77.266 119.804 76.483 L 124.954 55.856 L 112.138 52.666 L 106.885 73.726 C 104.094 73.086 101.351 72.46 98.69 71.8 L 98.69 71.732 L 80.999 67.318 L 77.562 81.013 C 77.562 81.013 87.077 83.193 86.878 83.331 C 92.096 84.575 93.011 88.013 92.88 90.763 L 86.898 114.765 C 87.352 114.877 87.798 115.019 88.232 115.191 L 86.857 114.854 L 78.469 148.475 C 77.83 150.05 76.221 152.422 72.591 151.521 C 72.721 151.707 63.267 149.197 63.267 149.197 L 56.901 163.876 L 73.594 168.002 C 76.695 168.779 79.741 169.59 82.732 170.36 L 77.424 191.674 L 90.26 194.899 L 95.513 173.818 C 99.013 174.767 102.389 175.64 105.73 176.465 L 100.498 197.449 L 113.321 200.646 L 118.629 179.381 C 140.493 183.506 156.939 181.849 163.862 162.068 C 169.438 146.145 163.58 136.959 152.078 130.971 C 160.452 129.039 166.764 123.524 168.448 112.139 Z  M 139.152 153.226 C 135.185 169.15 108.37 160.542 99.68 158.383 L 106.72 130.152 C 115.418 132.325 143.291 136.622 139.152 153.226 Z  M 143.119 111.912 C 139.503 126.398 117.185 119.035 109.945 117.233 L 116.332 91.629 C 123.565 93.431 146.88 96.8 143.119 111.912 L 143.119 111.912 Z " fill="rgb(255,255,255)"/><path d=" M 252.363 117.79 L 186.359 191.358 L 223.486 201.671 L 197.359 258.737 L 269.552 185.857 L 226.236 174.169 L 252.363 117.79 L 252.363 117.79 Z " fill="rgb(255,186,0)"/><path d=" M 332.077 70.611 L 332.077 70.611 L 332.077 70.611 Q 340.658 70.611 346.914 73.65 L 346.914 73.65 L 346.914 73.65 Q 353.171 76.689 357.283 81.873 L 357.283 81.873 L 357.283 81.873 Q 361.394 87.057 363.36 94.029 L 363.36 94.029 L 363.36 94.029 Q 365.327 101 365.327 109.045 L 365.327 109.045 L 365.327 109.045 Q 365.327 121.379 360.768 132.373 L 360.768 132.373 L 360.768 132.373 Q 356.21 143.367 348.344 151.501 L 348.344 151.501 L 348.344 151.501 Q 340.479 159.634 329.753 164.372 L 329.753 164.372 L 329.753 164.372 Q 319.028 169.109 306.514 169.109 L 306.514 169.109 L 306.514 169.109 Q 304.905 169.109 300.883 169.019 L 300.883 169.019 L 300.883 169.019 Q 296.861 168.93 291.677 168.215 L 291.677 168.215 L 291.677 168.215 Q 286.493 167.5 280.683 166.07 L 280.683 166.07 L 280.683 166.07 Q 274.873 164.64 269.689 162.137 L 269.689 162.137 L 300.615 32.177 L 328.323 27.887 L 317.24 74.007 L 317.24 74.007 Q 320.815 72.399 324.39 71.505 L 324.39 71.505 L 324.39 71.505 Q 327.966 70.611 332.077 70.611 Z  M 308.838 147.121 L 308.838 147.121 L 308.838 147.121 Q 315.095 147.121 320.636 144.082 L 320.636 144.082 L 320.636 144.082 Q 326.178 141.043 330.2 135.948 L 330.2 135.948 L 330.2 135.948 Q 334.222 130.854 336.546 124.418 L 336.546 124.418 L 336.546 124.418 Q 338.87 117.983 338.87 111.011 L 338.87 111.011 L 338.87 111.011 Q 338.87 102.431 336.01 97.604 L 336.01 97.604 L 336.01 97.604 Q 333.15 92.777 325.463 92.777 L 325.463 92.777 L 325.463 92.777 Q 322.96 92.777 318.938 93.671 L 318.938 93.671 L 318.938 93.671 Q 314.916 94.565 311.698 97.425 L 311.698 97.425 L 299.9 146.406 L 299.9 146.406 Q 300.973 146.585 301.777 146.763 L 301.777 146.763 L 301.777 146.763 Q 302.581 146.942 303.475 147.032 L 303.475 147.032 L 303.475 147.032 Q 304.369 147.121 305.62 147.121 L 305.62 147.121 L 305.62 147.121 Q 306.872 147.121 308.838 147.121 Z  M 421.458 72.577 L 398.934 166.606 L 372.477 166.606 L 394.823 72.577 L 421.458 72.577 L 421.458 72.577 Z  M 411.805 61.137 L 411.805 61.137 L 411.805 61.137 Q 406.263 61.137 401.794 57.829 L 401.794 57.829 L 401.794 57.829 Q 397.325 54.522 397.325 47.729 L 397.325 47.729 L 397.325 47.729 Q 397.325 43.975 398.845 40.668 L 398.845 40.668 L 398.845 40.668 Q 400.364 37.361 402.867 34.948 L 402.867 34.948 L 402.867 34.948 Q 405.369 32.535 408.677 31.105 L 408.677 31.105 L 408.677 31.105 Q 411.984 29.674 415.738 29.674 L 415.738 29.674 L 415.738 29.674 Q 421.279 29.674 425.748 32.982 L 425.748 32.982 L 425.748 32.982 Q 430.217 36.289 430.217 43.082 L 430.217 43.082 L 430.217 43.082 Q 430.217 46.836 428.698 50.143 L 428.698 50.143 L 428.698 50.143 Q 427.178 53.45 424.676 55.863 L 424.676 55.863 L 424.676 55.863 Q 422.173 58.276 418.866 59.706 L 418.866 59.706 L 418.866 59.706 Q 415.559 61.137 411.805 61.137 Z " fill-rule="evenodd" fill="rgb(78,78,78)"/><path d=" M 421.101 123.167 L 438.619 49.16 L 466.327 44.869 L 459.534 72.577 L 489.209 72.577 L 483.846 94.386 L 454.35 94.386 L 446.485 127.278 L 446.485 127.278 Q 445.412 131.39 445.144 134.965 L 445.144 134.965 L 445.144 134.965 Q 444.876 138.54 446.038 141.132 L 446.038 141.132 L 446.038 141.132 Q 447.2 143.725 450.06 145.155 L 450.06 145.155 L 450.06 145.155 Q 452.92 146.585 457.925 146.585 L 457.925 146.585 L 457.925 146.585 Q 462.216 146.585 466.238 145.78 L 466.238 145.78 L 466.238 145.78 Q 470.26 144.976 474.372 143.546 L 474.372 143.546 L 476.338 163.925 L 476.338 163.925 Q 470.975 165.891 464.718 167.321 L 464.718 167.321 L 464.718 167.321 Q 458.462 168.751 449.881 168.751 L 449.881 168.751 L 449.881 168.751 Q 437.547 168.751 430.754 165.087 L 430.754 165.087 L 430.754 165.087 Q 423.961 161.422 421.101 155.076 L 421.101 155.076 L 421.101 155.076 Q 418.24 148.73 418.598 140.507 L 418.598 140.507 L 418.598 140.507 Q 418.955 132.284 421.101 123.167 L 421.101 123.167 L 421.101 123.167 Z " fill="rgb(78,78,78)"/><path d=" M 485.09 129.066 L 485.09 129.066 L 485.09 129.066 Q 485.09 116.91 489.023 106.185 L 489.023 106.185 L 489.023 106.185 Q 492.956 95.459 500.285 87.415 L 500.285 87.415 L 500.285 87.415 Q 507.614 79.37 518.072 74.722 L 518.072 74.722 L 518.072 74.722 Q 528.53 70.075 541.4 70.075 L 541.4 70.075 L 541.4 70.075 Q 549.445 70.075 555.791 71.594 L 555.791 71.594 L 555.791 71.594 Q 562.137 73.114 567.321 75.616 L 567.321 75.616 L 558.204 96.353 L 558.204 96.353 Q 554.629 94.923 550.785 93.761 L 550.785 93.761 L 550.785 93.761 Q 546.942 92.599 541.4 92.599 L 541.4 92.599 L 541.4 92.599 Q 527.993 92.599 520.306 101.626 L 520.306 101.626 L 520.306 101.626 Q 512.62 110.654 512.62 126.206 L 512.62 126.206 L 512.62 126.206 Q 512.62 135.323 516.552 140.954 L 516.552 140.954 L 516.552 140.954 Q 520.485 146.585 531.032 146.585 L 531.032 146.585 L 531.032 146.585 Q 536.216 146.585 541.043 145.512 L 541.043 145.512 L 541.043 145.512 Q 545.869 144.44 549.623 142.831 L 549.623 142.831 L 551.59 164.103 L 551.59 164.103 Q 546.584 166.07 540.596 167.589 L 540.596 167.589 L 540.596 167.589 Q 534.607 169.109 526.027 169.109 L 526.027 169.109 L 526.027 169.109 Q 514.944 169.109 507.257 165.891 L 507.257 165.891 L 507.257 165.891 Q 499.57 162.673 494.565 157.221 L 494.565 157.221 L 494.565 157.221 Q 489.559 151.769 487.325 144.44 L 487.325 144.44 L 487.325 144.44 Q 485.09 137.11 485.09 129.066 Z " fill="rgb(78,78,78)"/><path d=" M 598.604 169.109 L 598.604 169.109 L 598.604 169.109 Q 589.13 169.109 582.158 166.249 L 582.158 166.249 L 582.158 166.249 Q 575.186 163.388 570.628 158.204 L 570.628 158.204 L 570.628 158.204 Q 566.07 153.02 563.746 145.959 L 563.746 145.959 L 563.746 145.959 Q 561.422 138.898 561.422 130.317 L 561.422 130.317 L 561.422 130.317 Q 561.422 119.592 564.908 108.866 L 564.908 108.866 L 564.908 108.866 Q 568.393 98.14 575.186 89.56 L 575.186 89.56 L 575.186 89.56 Q 581.979 80.979 591.811 75.527 L 591.811 75.527 L 591.811 75.527 Q 601.643 70.075 614.335 70.075 L 614.335 70.075 L 614.335 70.075 Q 623.631 70.075 630.692 72.935 L 630.692 72.935 L 630.692 72.935 Q 637.753 75.795 642.311 80.979 L 642.311 80.979 L 642.311 80.979 Q 646.87 86.163 649.194 93.224 L 649.194 93.224 L 649.194 93.224 Q 651.518 100.285 651.518 108.866 L 651.518 108.866 L 651.518 108.866 Q 651.518 119.592 648.121 130.317 L 648.121 130.317 L 648.121 130.317 Q 644.725 141.043 638.111 149.624 L 638.111 149.624 L 638.111 149.624 Q 631.496 158.204 621.575 163.656 L 621.575 163.656 L 621.575 163.656 Q 611.654 169.109 598.604 169.109 Z  M 611.833 92.599 L 611.833 92.599 L 611.833 92.599 Q 605.933 92.599 601.464 95.995 L 601.464 95.995 L 601.464 95.995 Q 596.995 99.392 593.956 104.576 L 593.956 104.576 L 593.956 104.576 Q 590.917 109.76 589.398 115.927 L 589.398 115.927 L 589.398 115.927 Q 587.878 122.094 587.878 127.636 L 587.878 127.636 L 587.878 127.636 Q 587.878 136.753 590.739 141.669 L 590.739 141.669 L 590.739 141.669 Q 593.599 146.585 601.107 146.585 L 601.107 146.585 L 601.107 146.585 Q 607.006 146.585 611.475 143.188 L 611.475 143.188 L 611.475 143.188 Q 615.944 139.792 618.983 134.608 L 618.983 134.608 L 618.983 134.608 Q 622.022 129.424 623.541 123.256 L 623.541 123.256 L 623.541 123.256 Q 625.061 117.089 625.061 111.547 L 625.061 111.547 L 625.061 111.547 Q 625.061 102.431 622.201 97.515 L 622.201 97.515 L 622.201 97.515 Q 619.341 92.599 611.833 92.599 Z  M 707.649 72.577 L 685.125 166.606 L 658.668 166.606 L 681.013 72.577 L 707.649 72.577 L 707.649 72.577 Z  M 697.996 61.137 L 697.996 61.137 L 697.996 61.137 Q 692.454 61.137 687.985 57.829 L 687.985 57.829 L 687.985 57.829 Q 683.516 54.522 683.516 47.729 L 683.516 47.729 L 683.516 47.729 Q 683.516 43.975 685.036 40.668 L 685.036 40.668 L 685.036 40.668 Q 686.555 37.361 689.058 34.948 L 689.058 34.948 L 689.058 34.948 Q 691.56 32.535 694.867 31.105 L 694.867 31.105 L 694.867 31.105 Q 698.175 29.674 701.929 29.674 L 701.929 29.674 L 701.929 29.674 Q 707.47 29.674 711.939 32.982 L 711.939 32.982 L 711.939 32.982 Q 716.408 36.289 716.408 43.082 L 716.408 43.082 L 716.408 43.082 Q 716.408 46.836 714.889 50.143 L 714.889 50.143 L 714.889 50.143 Q 713.369 53.45 710.867 55.863 L 710.867 55.863 L 710.867 55.863 Q 708.364 58.276 705.057 59.706 L 705.057 59.706 L 705.057 59.706 Q 701.75 61.137 697.996 61.137 Z  M 709.258 166.606 L 730.888 76.868 L 730.888 76.868 Q 733.927 75.974 737.591 74.812 L 737.591 74.812 L 737.591 74.812 Q 741.256 73.65 745.815 72.667 L 745.815 72.667 L 745.815 72.667 Q 750.373 71.683 756.004 71.058 L 756.004 71.058 L 756.004 71.058 Q 761.635 70.432 768.785 70.432 L 768.785 70.432 L 768.785 70.432 Q 789.879 70.432 797.745 82.588 L 797.745 82.588 L 797.745 82.588 Q 805.61 94.744 800.426 115.838 L 800.426 115.838 L 788.27 166.606 L 761.635 166.606 L 773.433 116.91 L 773.433 116.91 Q 774.506 112.262 775.131 107.883 L 775.131 107.883 L 775.131 107.883 Q 775.757 103.503 775.042 100.196 L 775.042 100.196 L 775.042 100.196 Q 774.327 96.889 771.735 94.833 L 771.735 94.833 L 771.735 94.833 Q 769.143 92.777 763.78 92.777 L 763.78 92.777 L 763.78 92.777 Q 758.596 92.777 753.233 93.85 L 753.233 93.85 L 735.893 166.606 L 709.258 166.606 L 709.258 166.606 Z " fill-rule="evenodd" fill="rgb(78,78,78)"/><path d=" M 287.383 218.499 L 299.414 218.499 L 298.16 223.672 L 280.054 223.672 L 286.56 196.514 L 292.673 196.514 L 287.383 218.499 L 287.383 218.499 Z " fill="rgb(78,78,78)"/><path d=" M 302.159 223.672 L 308.664 196.514 L 314.778 196.514 L 308.233 223.672 L 302.159 223.672 L 302.159 223.672 Z  M 328.259 218.97 L 328.259 218.97 L 328.259 218.97 Q 329.043 218.97 329.67 218.911 L 329.67 218.911 L 329.67 218.911 Q 330.297 218.852 330.807 218.774 L 330.807 218.774 L 333.08 209.329 L 339.193 209.329 L 335.901 222.928 L 335.901 222.928 Q 334.804 223.359 332.727 223.77 L 332.727 223.77 L 332.727 223.77 Q 330.65 224.182 327.436 224.182 L 327.436 224.182 L 327.436 224.182 Q 324.693 224.182 322.596 223.378 L 322.596 223.378 L 322.596 223.378 Q 320.5 222.575 319.089 221.086 L 319.089 221.086 L 319.089 221.086 Q 317.678 219.597 316.972 217.48 L 316.972 217.48 L 316.972 217.48 Q 316.267 215.364 316.267 212.699 L 316.267 212.699 L 316.267 212.699 Q 316.267 209.642 317.345 206.625 L 317.345 206.625 L 317.345 206.625 Q 318.422 203.607 320.539 201.236 L 320.539 201.236 L 320.539 201.236 Q 322.655 198.865 325.79 197.376 L 325.79 197.376 L 325.79 197.376 Q 328.925 195.887 333.001 195.887 L 333.001 195.887 L 333.001 195.887 Q 334.882 195.887 336.979 196.435 L 336.979 196.435 L 336.979 196.435 Q 339.076 196.984 340.761 198.081 L 340.761 198.081 L 338.566 202.823 L 338.566 202.823 Q 337.195 201.961 335.647 201.53 L 335.647 201.53 L 335.647 201.53 Q 334.099 201.099 332.609 201.099 L 332.609 201.099 L 332.609 201.099 Q 330.219 201.099 328.357 202 L 328.357 202 L 328.357 202 Q 326.496 202.902 325.202 204.45 L 325.202 204.45 L 325.202 204.45 Q 323.909 205.998 323.243 208.035 L 323.243 208.035 L 323.243 208.035 Q 322.577 210.073 322.577 212.346 L 322.577 212.346 L 322.577 212.346 Q 322.577 215.795 324.007 217.382 L 324.007 217.382 L 324.007 217.382 Q 325.438 218.97 328.259 218.97 Z  M 361.1 206.938 L 363.609 196.514 L 369.722 196.514 L 363.178 223.672 L 357.064 223.672 L 359.846 212.111 L 350.206 212.111 L 347.423 223.672 L 341.349 223.672 L 347.854 196.514 L 353.968 196.514 L 351.46 206.938 L 361.1 206.938 L 361.1 206.938 Z  M 373.328 196.514 L 395.353 196.514 L 394.099 201.647 L 386.143 201.647 L 380.852 223.672 L 374.739 223.672 L 380.029 201.647 L 372.074 201.647 L 373.328 196.514 L 373.328 196.514 Z  M 415.536 223.672 L 410.95 223.672 L 410.95 223.672 Q 409.304 219.048 407.286 214.423 L 407.286 214.423 L 407.286 214.423 Q 405.268 209.799 402.916 205.684 L 402.916 205.684 L 398.605 223.672 L 392.609 223.672 L 399.115 196.514 L 403.779 196.514 L 403.779 196.514 Q 404.68 197.885 405.718 199.747 L 405.718 199.747 L 405.718 199.747 Q 406.757 201.608 407.854 203.764 L 407.854 203.764 L 407.854 203.764 Q 408.952 205.919 410.049 208.251 L 410.049 208.251 L 410.049 208.251 Q 411.146 210.583 412.126 212.856 L 412.126 212.856 L 416.006 196.514 L 422.08 196.514 L 415.536 223.672 L 415.536 223.672 Z  M 421.688 223.672 L 428.194 196.514 L 434.308 196.514 L 427.763 223.672 L 421.688 223.672 L 421.688 223.672 Z  M 456.842 223.672 L 452.257 223.672 L 452.257 223.672 Q 450.611 219.048 448.592 214.423 L 448.592 214.423 L 448.592 214.423 Q 446.574 209.799 444.223 205.684 L 444.223 205.684 L 439.912 223.672 L 433.916 223.672 L 440.421 196.514 L 445.085 196.514 L 445.085 196.514 Q 445.986 197.885 447.025 199.747 L 447.025 199.747 L 447.025 199.747 Q 448.063 201.608 449.161 203.764 L 449.161 203.764 L 449.161 203.764 Q 450.258 205.919 451.355 208.251 L 451.355 208.251 L 451.355 208.251 Q 452.453 210.583 453.432 212.856 L 453.432 212.856 L 457.312 196.514 L 463.387 196.514 L 456.842 223.672 L 456.842 223.672 Z  M 476.868 218.97 L 476.868 218.97 L 476.868 218.97 Q 477.652 218.97 478.279 218.911 L 478.279 218.911 L 478.279 218.911 Q 478.906 218.852 479.415 218.774 L 479.415 218.774 L 481.688 209.329 L 487.802 209.329 L 484.51 222.928 L 484.51 222.928 Q 483.413 223.359 481.336 223.77 L 481.336 223.77 L 481.336 223.77 Q 479.259 224.182 476.045 224.182 L 476.045 224.182 L 476.045 224.182 Q 473.302 224.182 471.205 223.378 L 471.205 223.378 L 471.205 223.378 Q 469.108 222.575 467.698 221.086 L 467.698 221.086 L 467.698 221.086 Q 466.287 219.597 465.581 217.48 L 465.581 217.48 L 465.581 217.48 Q 464.876 215.364 464.876 212.699 L 464.876 212.699 L 464.876 212.699 Q 464.876 209.642 465.954 206.625 L 465.954 206.625 L 465.954 206.625 Q 467.031 203.607 469.148 201.236 L 469.148 201.236 L 469.148 201.236 Q 471.264 198.865 474.399 197.376 L 474.399 197.376 L 474.399 197.376 Q 477.534 195.887 481.61 195.887 L 481.61 195.887 L 481.61 195.887 Q 483.491 195.887 485.588 196.435 L 485.588 196.435 L 485.588 196.435 Q 487.685 196.984 489.37 198.081 L 489.37 198.081 L 487.175 202.823 L 487.175 202.823 Q 485.803 201.961 484.255 201.53 L 484.255 201.53 L 484.255 201.53 Q 482.707 201.099 481.218 201.099 L 481.218 201.099 L 481.218 201.099 Q 478.828 201.099 476.966 202 L 476.966 202 L 476.966 202 Q 475.104 202.902 473.811 204.45 L 473.811 204.45 L 473.811 204.45 Q 472.518 205.998 471.852 208.035 L 471.852 208.035 L 471.852 208.035 Q 471.185 210.073 471.185 212.346 L 471.185 212.346 L 471.185 212.346 Q 471.185 215.795 472.616 217.382 L 472.616 217.382 L 472.616 217.382 Q 474.046 218.97 476.868 218.97 Z " fill-rule="evenodd" fill="rgb(78,78,78)"/><g clip-path="url(#_clipPath_fcw3XVcdB7nV0n4Wx5vfVNFOTXTNfmuk)"><text transform="matrix(0.688,0,0,0.688,499.24,223.672)" style="font-family:'Ubuntu';font-weight:400;font-size:57px;font-style:italic;font-variant-ligatures:none;fill:#4E4E4E;stroke:none;">A</text></g><defs><clipPath id="_clipPath_fcw3XVcdB7nV0n4Wx5vfVNFOTXTNfmuk"><rect x="0" y="0" width="39" height="63.897" transform="matrix(0.688,0,0,0.688,499.24,187.147)"/></clipPath></defs><g clip-path="url(#_clipPath_3Ew5fe5RupsXksTrXVfHDmMP7h5FAUNf)"><text transform="matrix(0.688,0,0,0.688,522.754,223.672)" style="font-family:'Ubuntu';font-weight:400;font-size:57px;font-style:italic;font-variant-ligatures:none;fill:#4E4E4E;stroke:none;">C</text></g><defs><clipPath id="_clipPath_3Ew5fe5RupsXksTrXVfHDmMP7h5FAUNf"><rect x="0" y="0" width="37" height="63.897" transform="matrix(0.688,0,0,0.688,522.754,187.147)"/></clipPath></defs><path d=" M 561.043 224.26 L 561.043 224.26 L 561.043 224.26 Q 558.496 224.26 556.556 223.516 L 556.556 223.516 L 556.556 223.516 Q 554.616 222.771 553.322 221.399 L 553.322 221.399 L 553.322 221.399 Q 552.029 220.028 551.383 218.088 L 551.383 218.088 L 551.383 218.088 Q 550.736 216.148 550.736 213.718 L 550.736 213.718 L 550.736 213.718 Q 550.736 210.191 551.853 206.977 L 551.853 206.977 L 551.853 206.977 Q 552.97 203.764 555.027 201.295 L 555.027 201.295 L 555.027 201.295 Q 557.085 198.826 559.985 197.356 L 559.985 197.356 L 559.985 197.356 Q 562.885 195.887 566.451 195.887 L 566.451 195.887 L 566.451 195.887 Q 569.508 195.887 571.33 196.514 L 571.33 196.514 L 571.33 196.514 Q 573.153 197.141 573.936 197.689 L 573.936 197.689 L 572.369 200.824 L 572.369 200.824 Q 571.467 200.237 569.919 199.708 L 569.919 199.708 L 569.919 199.708 Q 568.371 199.179 566.255 199.179 L 566.255 199.179 L 566.255 199.179 Q 563.551 199.179 561.396 200.452 L 561.396 200.452 L 561.396 200.452 Q 559.24 201.726 557.751 203.744 L 557.751 203.744 L 557.751 203.744 Q 556.262 205.762 555.478 208.29 L 555.478 208.29 L 555.478 208.29 Q 554.694 210.818 554.694 213.287 L 554.694 213.287 L 554.694 213.287 Q 554.694 220.929 561.317 220.929 L 561.317 220.929 L 561.317 220.929 Q 562.728 220.929 563.845 220.733 L 563.845 220.733 L 563.845 220.733 Q 564.962 220.537 565.824 220.282 L 565.824 220.282 L 565.824 220.282 Q 566.686 220.028 567.352 219.714 L 567.352 219.714 L 567.352 219.714 Q 568.019 219.401 568.528 219.165 L 568.528 219.165 L 568.998 222.457 L 568.998 222.457 Q 568.528 222.732 567.764 223.045 L 567.764 223.045 L 567.764 223.045 Q 567 223.359 565.981 223.633 L 565.981 223.633 L 565.981 223.633 Q 564.962 223.907 563.708 224.084 L 563.708 224.084 L 563.708 224.084 Q 562.454 224.26 561.043 224.26 Z  M 589.534 223.672 L 572.565 223.672 L 579.07 196.514 L 595.099 196.514 L 594.354 199.688 L 582.088 199.688 L 580.128 207.879 L 591.023 207.879 L 590.279 210.975 L 579.423 210.975 L 577.111 220.498 L 590.279 220.498 L 589.534 223.672 L 589.534 223.672 Z " fill-rule="evenodd" fill="rgb(78,78,78)"/><g clip-path="url(#_clipPath_5AdGjffArb9qWxq1jJFfQtALnfPT8KRE)"><text transform="matrix(0.688,0,0,0.688,590.945,223.672)" style="font-family:'Ubuntu';font-weight:400;font-size:57px;font-style:italic;font-variant-ligatures:none;fill:#4E4E4E;stroke:none;">P</text></g><defs><clipPath id="_clipPath_5AdGjffArb9qWxq1jJFfQtALnfPT8KRE"><rect x="0" y="0" width="36" height="63.897" transform="matrix(0.688,0,0,0.688,590.945,187.147)"/></clipPath></defs><path d=" M 619.944 196.514 L 640.127 196.514 L 639.382 199.688 L 631.192 199.688 L 625.431 223.672 L 621.629 223.672 L 627.39 199.688 L 619.2 199.688 L 619.944 196.514 L 619.944 196.514 Z  M 654.627 223.672 L 637.658 223.672 L 644.164 196.514 L 660.192 196.514 L 659.448 199.688 L 647.181 199.688 L 645.222 207.879 L 656.117 207.879 L 655.372 210.975 L 644.516 210.975 L 642.204 220.498 L 655.372 220.498 L 654.627 223.672 L 654.627 223.672 Z  M 672.576 199.453 L 672.576 199.453 L 672.576 199.453 Q 669.637 199.453 669.049 199.61 L 669.049 199.61 L 664.033 220.537 L 664.033 220.537 Q 664.347 220.615 665.091 220.674 L 665.091 220.674 L 665.091 220.674 Q 665.836 220.733 667.521 220.733 L 667.521 220.733 L 667.521 220.733 Q 670.617 220.733 673.106 219.695 L 673.106 219.695 L 673.106 219.695 Q 675.594 218.656 677.318 216.794 L 677.318 216.794 L 677.318 216.794 Q 679.043 214.933 679.983 212.366 L 679.983 212.366 L 679.983 212.366 Q 680.924 209.799 680.924 206.742 L 680.924 206.742 L 680.924 206.742 Q 680.924 203.293 678.925 201.373 L 678.925 201.373 L 678.925 201.373 Q 676.927 199.453 672.576 199.453 Z  M 672.89 196.239 L 672.89 196.239 L 672.89 196.239 Q 678.925 196.239 681.904 199.081 L 681.904 199.081 L 681.904 199.081 Q 684.882 201.922 684.882 206.742 L 684.882 206.742 L 684.882 206.742 Q 684.882 210.113 683.824 213.228 L 683.824 213.228 L 683.824 213.228 Q 682.766 216.344 680.532 218.734 L 680.532 218.734 L 680.532 218.734 Q 678.298 221.125 674.83 222.536 L 674.83 222.536 L 674.83 222.536 Q 671.362 223.947 666.541 223.947 L 666.541 223.947 L 666.541 223.947 Q 664.895 223.947 662.975 223.79 L 662.975 223.79 L 662.975 223.79 Q 661.055 223.633 659.605 223.241 L 659.605 223.241 L 665.914 196.866 L 665.914 196.866 Q 667.56 196.474 669.402 196.357 L 669.402 196.357 L 669.402 196.357 Q 671.244 196.239 672.89 196.239 Z  M 722.309 196.514 L 715.803 223.672 L 712.002 223.672 L 715.019 211.053 L 702.439 211.053 L 699.422 223.672 L 695.62 223.672 L 702.126 196.514 L 705.927 196.514 L 703.184 207.879 L 715.764 207.879 L 718.507 196.514 L 722.309 196.514 L 722.309 196.514 Z  M 739.278 223.672 L 722.309 223.672 L 728.814 196.514 L 744.843 196.514 L 744.098 199.688 L 731.832 199.688 L 729.872 207.879 L 740.767 207.879 L 740.023 210.975 L 729.167 210.975 L 726.855 220.498 L 740.023 220.498 L 739.278 223.672 L 739.278 223.672 Z  M 757.541 196.239 L 757.541 196.239 L 757.541 196.239 Q 761.891 196.239 764.438 198.003 L 764.438 198.003 L 764.438 198.003 Q 766.985 199.766 766.985 203.176 L 766.985 203.176 L 766.985 203.176 Q 766.985 206.625 764.967 208.956 L 764.967 208.956 L 764.967 208.956 Q 762.949 211.288 759.304 212.307 L 759.304 212.307 L 759.304 212.307 Q 759.774 213.13 760.402 214.404 L 760.402 214.404 L 760.402 214.404 Q 761.029 215.678 761.695 217.226 L 761.695 217.226 L 761.695 217.226 Q 762.361 218.774 762.988 220.439 L 762.988 220.439 L 762.988 220.439 Q 763.615 222.105 764.085 223.672 L 764.085 223.672 L 760.206 223.672 L 760.206 223.672 Q 759.657 222.183 759.069 220.655 L 759.069 220.655 L 759.069 220.655 Q 758.481 219.126 757.874 217.715 L 757.874 217.715 L 757.874 217.715 Q 757.266 216.305 756.659 215.07 L 756.659 215.07 L 756.659 215.07 Q 756.051 213.836 755.542 212.895 L 755.542 212.895 L 755.542 212.895 Q 755.032 212.934 754.523 212.954 L 754.523 212.954 L 754.523 212.954 Q 754.014 212.973 753.504 212.973 L 753.504 212.973 L 750.486 212.973 L 747.939 223.672 L 744.138 223.672 L 750.565 196.866 L 750.565 196.866 Q 752.211 196.474 754.053 196.357 L 754.053 196.357 L 754.053 196.357 Q 755.895 196.239 757.541 196.239 Z  M 757.07 199.453 L 757.07 199.453 L 757.07 199.453 Q 754.288 199.453 753.7 199.61 L 753.7 199.61 L 751.231 209.877 L 753.543 209.877 L 753.543 209.877 Q 755.15 209.877 756.835 209.642 L 756.835 209.642 L 756.835 209.642 Q 758.52 209.407 759.912 208.721 L 759.912 208.721 L 759.912 208.721 Q 761.303 208.035 762.185 206.801 L 762.185 206.801 L 762.185 206.801 Q 763.066 205.566 763.066 203.529 L 763.066 203.529 L 763.066 203.529 Q 763.066 201.334 761.401 200.393 L 761.401 200.393 L 761.401 200.393 Q 759.735 199.453 757.07 199.453 Z  M 784.974 223.672 L 768.004 223.672 L 774.51 196.514 L 790.539 196.514 L 789.794 199.688 L 777.528 199.688 L 775.568 207.879 L 786.463 207.879 L 785.718 210.975 L 774.863 210.975 L 772.55 220.498 L 785.718 220.498 L 784.974 223.672 L 784.974 223.672 Z " fill-rule="evenodd" fill="rgb(78,78,78)"/></g></g></svg>